<svg width="12" height="12" viewBox="0 0 12 12" fill="none" xmlns="http://www.w3.org/2000/svg">
<path d="M10.0625 6.25C10.0625 4.80469 9.28125 3.47656 8.03125 2.73438C6.76172 2.01172 5.21875 2.01172 3.96875 2.73438C2.69922 3.47656 1.9375 4.80469 1.9375 6.25C1.9375 7.71484 2.69922 9.04297 3.96875 9.78516C5.21875 10.5078 6.76172 10.5078 8.03125 9.78516C9.28125 9.04297 10.0625 7.71484 10.0625 6.25ZM1 6.25C1 4.47266 1.9375 2.83203 3.5 1.93359C5.04297 1.03516 6.9375 1.03516 8.5 1.93359C10.043 2.83203 11 4.47266 11 6.25C11 8.04688 10.043 9.6875 8.5 10.5859C6.9375 11.4844 5.04297 11.4844 3.5 10.5859C1.9375 9.6875 1 8.04688 1 6.25ZM5.53125 3.59375V3.125H6.46875V3.59375V6.01562L8.12891 7.10938L8.51953 7.38281L7.99219 8.16406L7.60156 7.89062L5.72656 6.64062L5.53125 6.50391V6.25V3.59375Z" fill="#947305"/>
</svg>
