<svg width="38" height="37" viewBox="0 0 38 37" fill="none" xmlns="http://www.w3.org/2000/svg">
<path fill-rule="evenodd" clip-rule="evenodd" d="M8.21128 3.24561C1.79271 7.54859 -1.47928 15.5073 0.645965 23.2958C3.33716 33.1565 13.6593 39.0076 23.702 36.3656C31.908 34.2067 37.3868 27.0461 37.6491 19.1202C36.5135 25.6247 31.6498 31.2128 24.7309 33.033C15.2529 35.5266 5.51118 30.0042 2.97173 20.6985C1.18762 14.1617 3.43176 7.49723 8.21128 3.24561Z" fill="white"/>
<path fill-rule="evenodd" clip-rule="evenodd" d="M29.414 29.2105C34.8362 25.4868 37.6009 18.5998 35.8051 11.8593C33.5316 3.32635 24.8109 -1.73752 16.3265 0.549076C9.39401 2.41709 4.76551 8.61399 4.54395 15.4728C5.50319 9.84358 9.61222 5.00796 15.4574 3.433C23.4648 1.2751 31.695 6.05394 33.8406 14.1073C35.3475 19.764 33.4515 25.5313 29.414 29.2105Z" fill="white"/>
<path fill-rule="evenodd" clip-rule="evenodd" d="M27.1441 28.9885L24.5196 23.0551C24.2282 22.3532 23.4504 22.0025 22.7045 22.1612L17.4558 23.3421V17.7927C17.4558 16.9301 16.7439 16.228 15.8689 16.228C14.9939 16.228 14.2808 16.9299 14.2808 17.7927L14.3128 25.2878C14.3128 25.7678 14.5071 26.2449 14.8965 26.5319C15.2517 26.8511 15.7717 26.947 16.2241 26.8511L22.1215 25.5104L24.2279 30.2322C24.4539 30.8066 25.0369 31.1579 25.6537 31.1579C25.8801 31.1579 26.0742 31.1254 26.3004 31.0622C27.1119 30.7113 27.4684 29.7862 27.1441 28.9885Z" fill="white"/>
<path fill-rule="evenodd" clip-rule="evenodd" d="M18.8248 12.6718C18.8248 11.3954 17.6443 10.3857 16.2281 10.3857C14.7785 10.3857 13.6318 11.3954 13.6318 12.6718C13.6318 13.9186 14.7785 14.9296 16.2281 14.9296C17.6443 14.9296 18.8248 13.9186 18.8248 12.6718Z" fill="white"/>
<path fill-rule="evenodd" clip-rule="evenodd" d="M19.7162 27.4219C20.1752 27.321 20.6661 27.2537 21.1577 27.1186C21.2232 27.321 21.355 27.5221 21.4209 27.7584C20.1752 29.7104 17.9791 31.158 15.487 31.158C11.586 31.158 8.43848 27.8593 8.43848 23.8542C8.43848 21.0949 10.1101 18.7392 12.3071 17.5264V19.4455C10.9952 20.4553 10.044 22.0704 10.044 23.8886C10.0449 26.9511 12.47 29.4751 15.4544 29.4751C17.1908 29.4749 18.7315 28.7 19.7162 27.4219Z" fill="white"/>
</svg>
