<svg width="38" height="38" viewBox="0 0 38 38" fill="none" xmlns="http://www.w3.org/2000/svg">
<path fill-rule="evenodd" clip-rule="evenodd" d="M8.21128 3.25366C1.79271 7.56745 -1.47928 15.5461 0.645965 23.3542C3.33716 33.2396 13.6593 39.1054 23.702 36.4568C31.908 34.2924 37.3868 27.1139 37.6491 19.1681C36.5135 25.689 31.6498 31.2911 24.7309 33.1158C15.2529 35.6156 5.51118 30.0794 2.97173 20.7504C1.18762 14.1972 3.43176 7.51596 8.21128 3.25366Z" fill="#4D4D4D"/>
<path fill-rule="evenodd" clip-rule="evenodd" d="M29.414 29.2839C34.8362 25.5508 37.6009 18.6465 35.8051 11.8891C33.5316 3.3347 24.8109 -1.74188 16.3265 0.550454C9.39401 2.42316 4.76551 8.63561 4.54395 15.5117C5.50319 9.86829 9.61222 5.02053 15.4574 3.44162C23.4648 1.2783 31.695 6.06914 33.8406 14.1427C35.3475 19.8136 33.4515 25.5954 29.414 29.2839Z" fill="#015E20"/>
<path fill-rule="evenodd" clip-rule="evenodd" d="M27.1441 29.0613L24.5196 23.113C24.2282 22.4094 23.4504 22.0577 22.7045 22.2169L17.4558 23.4007V17.8373C17.4558 16.9726 16.7439 16.2688 15.8689 16.2688C14.9939 16.2688 14.2808 16.9724 14.2808 17.8373L14.3128 25.3513C14.3128 25.8326 14.5071 26.3108 14.8965 26.5985C15.2517 26.9186 15.7717 27.0146 16.2241 26.9186L22.1215 25.5745L24.2279 30.3082C24.4539 30.8839 25.0369 31.2361 25.6537 31.2361C25.8801 31.2361 26.0742 31.2036 26.3004 31.1402C27.1119 30.7884 27.4684 29.861 27.1441 29.0613Z" fill="#4D4D4D"/>
<path fill-rule="evenodd" clip-rule="evenodd" d="M18.8248 12.7039C18.8248 11.4243 17.6443 10.4121 16.2281 10.4121C14.7785 10.4121 13.6318 11.4243 13.6318 12.7039C13.6318 13.9538 14.7785 14.9674 16.2281 14.9674C17.6443 14.9674 18.8248 13.9538 18.8248 12.7039Z" fill="#4D4D4D"/>
<path fill-rule="evenodd" clip-rule="evenodd" d="M19.7162 27.4907C20.1752 27.3896 20.6661 27.3221 21.1577 27.1866C21.2232 27.3896 21.355 27.5912 21.4209 27.828C20.1752 29.7849 17.9791 31.2361 15.487 31.2361C11.586 31.2361 8.43848 27.9292 8.43848 23.914C8.43848 21.1478 10.1101 18.7862 12.3071 17.5703V19.4943C10.9952 20.5066 10.044 22.1257 10.044 23.9485C10.0449 27.0188 12.47 29.549 15.4544 29.549C17.1908 29.5488 18.7315 28.772 19.7162 27.4907Z" fill="#015E20"/>
</svg>
