<svg width="1009" height="787" viewBox="0 0 1009 787" fill="none" xmlns="http://www.w3.org/2000/svg">
<path d="M475.004 145.873L472.657 117.854L525.286 121.499L475.004 145.873Z" fill="url(#paint0_linear_453_408)"/>
<path d="M74.0785 413.245L86.6205 456.52L50.3994 420.281L74.0785 413.245Z" fill="#EFAFAB"/>
<path d="M525.067 55.9743L540.925 36.1826L556.901 63.5321L525.067 55.9743Z" fill="#EFAFAB"/>
<path d="M387.841 46.1013L428.909 27.5732L398.151 68.5497L387.841 46.1013Z" fill="url(#paint1_linear_453_408)"/>
<path d="M179.713 298.894L184.365 290.182L192.441 299.506L179.713 298.894Z" fill="url(#paint2_linear_453_408)"/>
<path d="M11.667 278.952L16.7523 246.175L45.9562 263.339L11.667 278.952Z" fill="#87C6A8"/>
<path d="M512.109 193.053L494.992 176.027L522.507 163.692L512.109 193.053Z" fill="url(#paint3_linear_453_408)"/>
<path d="M834.832 85.3488L875.901 66.8198L845.142 107.796L834.832 85.3488Z" fill="#87C6A8"/>
<path d="M84.3174 374.328L100.176 354.537L116.152 381.886L84.3174 374.328Z" fill="#F4C8C3"/>
<path d="M977.81 79.8706L961.612 94.7474H979.759L977.81 79.8706Z" fill="#A5DBCA"/>
<path d="M30.04 356.023L45.8978 336.231L61.8741 363.58L30.04 356.023Z" fill="#A5DBCA"/>
<path d="M59.3887 41.7034L79.7739 15.5391L96.9417 44.7402L59.3887 41.7034Z" fill="#87C6A8"/>
<path d="M265.217 101.298L272.922 81.3438L300.079 105.05L265.217 101.298Z" fill="url(#paint4_linear_453_408)"/>
<path d="M615.406 64.444L643.809 47.3135L649.382 80.7266L615.406 64.444Z" fill="#F4C8C3"/>
<path d="M174.724 517.976L203.126 500.845L208.699 534.257L174.724 517.976Z" fill="#F4C8C3"/>
<path d="M60.2676 195.286L82.3421 156.009L81.8826 207.244L60.2676 195.286Z" fill="#EFAFAB"/>
<path d="M354.376 214.202L357.901 189.086L385.605 204.44L354.376 214.202Z" fill="#EFAFAB"/>
<path d="M919.308 409.038L925.606 364.426L943.79 412.327L919.308 409.038Z" fill="#EFAFAB"/>
<path d="M413.218 77.5876L417.554 69.4673L425.081 78.1583L413.218 77.5876Z" fill="url(#paint5_linear_453_408)"/>
<path d="M968.113 311.232L973.199 278.456L1002.4 295.62L968.113 311.232Z" fill="#A5DBCA"/>
<path d="M28.8121 758.189L11.6943 741.163L39.2089 728.828L28.8121 758.189Z" fill="url(#paint6_linear_453_408)"/>
<path d="M235.815 282.143L269.373 267.003L250.035 313.101L235.815 282.143Z" fill="#87C6A8"/>
<path d="M139.799 688.527L131.319 708.82L147.799 701.221L139.799 688.527Z" fill="#A5DBCA"/>
<path d="M677.654 150.738L701.034 112.224L698.856 163.414L677.654 150.738Z" fill="url(#paint7_linear_453_408)"/>
<path d="M693.98 46.5832L705.926 24.2114L726.662 48.154L693.98 46.5832Z" fill="#A5DBCA"/>
<path d="M287.94 54.685L308.839 28.9272L325.427 58.4621L287.94 54.685Z" fill="#87C6A8"/>
<path d="M55.2544 124.146L49.6895 91.4478L82.8272 98.4723L55.2544 124.146Z" fill="url(#paint8_linear_453_408)"/>
<path d="M5.97949 656.819L34.382 639.688L39.9551 673.101L5.97949 656.819Z" fill="url(#paint9_linear_453_408)"/>
<path d="M35.6045 283.321L37.5701 270.357L49.2724 277.936L35.6045 283.321Z" fill="#F4C8C3"/>
<path d="M253.618 182.451L267.735 156.824L286.389 181.719L253.618 182.451Z" fill="#87C6A8"/>
<path d="M28.8125 84.8139L33.1977 55.8872L59.3091 72.798L28.8125 84.8139Z" fill="#F4C8C3"/>
<path d="M249.543 112.704L253.928 83.7773L280.04 100.687L249.543 112.704Z" fill="#A5DBCA"/>
<path d="M97.8281 662.403L102.213 633.476L128.325 650.387L97.8281 662.403Z" fill="#EFAFAB"/>
<path d="M931.677 672.966L947.02 648.056L964.444 673.828L931.677 672.966Z" fill="url(#paint10_linear_453_408)"/>
<path d="M845.829 28.9267L850.215 0L876.326 16.9108L845.829 28.9267Z" fill="#A5DBCA"/>
<path d="M508.749 281.285L537.152 264.153L542.725 297.566L508.749 281.285Z" fill="#F4C8C3"/>
<path d="M211.849 31.7784L240.251 14.6479L245.825 48.0611L211.849 31.7784Z" fill="#F4C8C3"/>
<path d="M971.699 50.8029L970.687 21.5635L999.464 33.3807L971.699 50.8029Z" fill="#EFAFAB"/>
<path d="M226.727 216.37L221.163 183.671L254.301 190.696L226.727 216.37Z" fill="url(#paint11_linear_453_408)"/>
<path d="M967.084 56.6478L990.077 32.7417L1004.12 63.5684L967.084 56.6478Z" fill="url(#paint12_linear_453_408)"/>
<path d="M380.801 230.572L385.186 201.645L411.297 218.555L380.801 230.572Z" fill="#F4C8C3"/>
<path d="M811.872 449.62L799.651 449.568L805.05 437.748L811.872 449.62Z" fill="#F4C8C3"/>
<path d="M100.711 30.5391L113.253 73.8129L77.0322 37.5754L100.711 30.5391Z" fill="#EFAFAB"/>
<path d="M212.496 131.821L224.442 109.448L245.178 133.392L212.496 131.821Z" fill="#EFAFAB"/>
<path d="M794.606 213.582L809.513 206.856L798.349 221.73L794.606 213.582Z" fill="#EFAFAB"/>
<path d="M581.565 121.234L587.741 113.525L593.963 124.177L581.565 121.234Z" fill="url(#paint13_linear_453_408)"/>
<path d="M990.178 120.626L992.024 108.729L1002.62 114.959L990.178 120.626Z" fill="#87C6A8"/>
<path d="M819.71 106.651L813.044 100.02L823.76 95.2163L819.71 106.651Z" fill="url(#paint14_linear_453_408)"/>
<path d="M453.232 54.5859L464.207 85.8876L432.236 67.6002L453.232 54.5859Z" fill="#87C6A8"/>
<path d="M802.061 175.678L814.006 153.306L834.743 177.249L802.061 175.678Z" fill="#F4C8C3"/>
<path d="M923.572 426.081L910.389 443.684L928.226 440.345L923.572 426.081Z" fill="#A5DBCA"/>
<path d="M880.896 652.754L888.003 643.884L895.163 656.141L880.896 652.754Z" fill="#A5DBCA"/>
<path d="M87.6191 88.6013L89.5993 75.8359L100.973 82.5213L87.6191 88.6013Z" fill="#87C6A8"/>
<path d="M46.4736 164.976L49.474 157.205L60.0504 166.438L46.4736 164.976Z" fill="url(#paint15_linear_453_408)"/>
<path d="M848.821 424.222L877.224 407.091L882.797 440.503L848.821 424.222Z" fill="#87C6A8"/>
<path d="M8.46191 508.768L36.8653 491.637L42.4384 525.049L8.46191 508.768Z" fill="#F4C8C3"/>
<path d="M731.869 24.0836L761.682 21.0522L751.869 57.1685L731.869 24.0836Z" fill="#EFAFAB"/>
<path d="M936.468 153.458L950.855 165.591L929.869 161.391L936.468 153.458Z" fill="#EFAFAB"/>
<path d="M921.44 197.33L931.758 199.736L924.334 210.687L921.44 197.33Z" fill="url(#paint16_linear_453_408)"/>
<path d="M320.967 163.226L334.234 159.232L333.033 173.331L320.967 163.226Z" fill="#87C6A8"/>
<path d="M56.2665 650.463L48.5947 642.832L60.9261 637.304L56.2665 650.463Z" fill="url(#paint17_linear_453_408)"/>
<path d="M630.338 119.461L671.407 100.933L640.648 141.91L630.338 119.461Z" fill="#87C6A8"/>
<path d="M70.0496 776.618L67.9883 786.257L74.6208 781.55L70.0496 776.618Z" fill="#A5DBCA"/>
<path d="M585.069 38.1163L601.064 30.9004L589.085 46.8584L585.069 38.1163Z" fill="url(#paint18_linear_453_408)"/>
<path d="M603.276 90.9827L609.452 83.2744L615.674 93.9256L603.276 90.9827Z" fill="#A5DBCA"/>
<path d="M395.495 182.806L397.34 170.909L407.941 177.139L395.495 182.806Z" fill="#87C6A8"/>
<path d="M95.9474 153.221L93.7812 140.487L106.686 143.223L95.9474 153.221Z" fill="url(#paint19_linear_453_408)"/>
<path d="M332.107 317.582L333.815 306.316L343.984 312.902L332.107 317.582Z" fill="#A5DBCA"/>
<path d="M670.113 30.9638L673.3 17.46L685.195 24.2812L670.113 30.9638Z" fill="#F4C8C3"/>
<path d="M900.262 340.763L902.227 327.799L913.93 335.378L900.262 340.763Z" fill="#F4C8C3"/>
<path d="M996.032 721.349L997.864 709.265L1008.77 716.329L996.032 721.349Z" fill="#87C6A8"/>
<path d="M325.431 129.684L313.21 129.632L318.61 117.812L325.431 129.684Z" fill="#EFAFAB"/>
<path d="M30.7539 133.382L32.4615 122.117L42.6304 128.703L30.7539 133.382Z" fill="url(#paint20_linear_453_408)"/>
<path d="M785.49 190.173L797.18 186.608L795.517 199.497L785.49 190.173Z" fill="#87C6A8"/>
<path d="M968.426 477.248L996.829 460.118L1002.4 493.53L968.426 477.248Z" fill="#87C6A8"/>
<path d="M211.524 272.289L222.586 265.618L224.757 278.63L211.524 272.289Z" fill="#F4C8C3"/>
<path d="M122.386 115.801L124.093 104.535L134.262 111.121L122.386 115.801Z" fill="#F4C8C3"/>
<path d="M42.2573 530.219L36.6924 497.521L69.8311 504.545L42.2573 530.219Z" fill="url(#paint21_linear_453_408)"/>
<path d="M871.101 114.817L882.162 108.146L884.333 121.158L871.101 114.817Z" fill="#A5DBCA"/>
<path d="M701.039 274.152L702.747 262.886L712.916 269.472L701.039 274.152Z" fill="#A5DBCA"/>
<path d="M316.928 115.988L347.463 98.0103L354.809 135.321L316.928 115.988Z" fill="#87C6A8"/>
<path d="M115.374 763.685L127.064 760.121L125.401 773.009L115.374 763.685Z" fill="#F4C8C3"/>
<path d="M947.607 197.283L975.619 184.646L954.64 212.594L947.607 197.283Z" fill="url(#paint22_linear_453_408)"/>
<path d="M139.256 537.423L156.341 540.131L145.535 558.838L139.256 537.423Z" fill="url(#paint23_linear_453_408)"/>
<path d="M0 575.096L3.46803 552.741L23.3864 564.448L0 575.096Z" fill="#87C6A8"/>
<path d="M79.3244 317.609L67.6494 305.996L86.4155 297.583L79.3244 317.609Z" fill="url(#paint24_linear_453_408)"/>
<path d="M213.361 243.952L202.313 254.098H214.69L213.361 243.952Z" fill="#A5DBCA"/>
<path d="M862.217 171.981L873.033 158.481L883.929 177.135L862.217 171.981Z" fill="#A5DBCA"/>
<path d="M12.8184 415.153L33.9557 407.091L33.6539 430.193L12.8184 415.153Z" fill="#87C6A8"/>
<path d="M791.335 254.917L805.76 252.74L800.891 276.839L791.335 254.917Z" fill="url(#paint25_linear_453_408)"/>
<path d="M951.648 731.368L960.329 726.132L962.033 736.345L951.648 731.368Z" fill="#F4C8C3"/>
<path d="M645.162 226.937L648.462 257.489L628.424 228.859L645.162 226.937Z" fill="#EFAFAB"/>
<path d="M342.802 257.812L359.887 260.52L349.08 279.227L342.802 257.812Z" fill="#EFAFAB"/>
<path d="M151.22 271.823L176.075 289.895L141.404 285.518L151.22 271.823Z" fill="#EFAFAB"/>
<path d="M184.146 574.611L199.62 566.88L201.706 588.383L184.146 574.611Z" fill="#EFAFAB"/>
<path d="M60.2949 525.855L62.0636 514.456L72.2197 520.425L60.2949 525.855Z" fill="#A5DBCA"/>
<path d="M271.373 200.588L288.197 174.148L297.931 214.25L271.373 200.588Z" fill="url(#paint26_linear_453_408)"/>
<path d="M529.507 200.021L560.091 203.012L527.98 216.8L529.507 200.021Z" fill="#87C6A8"/>
<path d="M75.9522 606.521L61.0645 608.354L71.1349 615.549L75.9522 606.521Z" fill="#A5DBCA"/>
<path d="M845.002 128.783L869.857 146.854L835.187 142.476L845.002 128.783Z" fill="url(#paint27_linear_453_408)"/>
<path d="M587.764 162.654L598.58 149.155L609.476 167.809L587.764 162.654Z" fill="#A5DBCA"/>
<path d="M862.505 571.608L883.641 563.545L883.34 586.647L862.505 571.608Z" fill="url(#paint28_linear_453_408)"/>
<path d="M559.951 113.789L556.155 91.4878L578.757 96.2787L559.951 113.789Z" fill="url(#paint29_linear_453_408)"/>
<path d="M76.4326 382.034L86.3107 376.076L88.2489 387.696L76.4326 382.034Z" fill="url(#paint30_linear_453_408)"/>
<path d="M121.218 231.994L124.209 212.265L142.018 223.799L121.218 231.994Z" fill="#87C6A8"/>
<path d="M740.764 245.609L759.384 238.432L758.188 259.617L740.764 245.609Z" fill="#F4C8C3"/>
<path d="M975.764 352.879L994.384 345.702L993.188 366.886L975.764 352.879Z" fill="url(#paint31_linear_453_408)"/>
<path d="M101.384 440.943L102.909 430.883L111.99 436.764L101.384 440.943Z" fill="#A5DBCA"/>
<path d="M783.739 355.767L769.21 357.876L780.27 343.131L783.739 355.767Z" fill="#EFAFAB"/>
<path d="M869.411 28.9394L888.03 21.7627L886.835 42.9474L869.411 28.9394Z" fill="url(#paint32_linear_453_408)"/>
<path d="M412.794 111.68L414.319 101.62L423.4 107.501L412.794 111.68Z" fill="#A5DBCA"/>
<path d="M634.398 309.675L653.77 297.991L657.572 320.78L634.398 309.675Z" fill="#87C6A8"/>
<path d="M956.839 567.222L976.211 555.538L980.012 578.327L956.839 567.222Z" fill="#F4C8C3"/>
<path d="M56.9482 695.257L75.5675 688.082L74.3714 709.265L56.9482 695.257Z" fill="#F4C8C3"/>
<path d="M603.857 228.894L621.35 214.547L628.385 236.554L603.857 228.894Z" fill="url(#paint33_linear_453_408)"/>
<path d="M904.264 129.094L924.01 140.132L906.097 154.725L904.264 129.094Z" fill="#87C6A8"/>
<path d="M945.729 621.465L948.72 601.736L966.528 613.27L945.729 621.465Z" fill="#87C6A8"/>
<path d="M44.4902 392.119L54.3683 386.161L56.3065 397.781L44.4902 392.119Z" fill="url(#paint34_linear_453_408)"/>
<path d="M291.427 66.1048L301.305 60.147L303.243 71.7682L291.427 66.1048Z" fill="url(#paint35_linear_453_408)"/>
<path d="M357.113 67.6214L358.639 57.5601L367.72 63.4422L357.113 67.6214Z" fill="#A5DBCA"/>
<path d="M761.366 197.502C761.366 197.502 770.787 176.553 757.262 161.681C743.736 146.808 724.476 145.392 725.343 127.483C725.343 127.483 735.299 133.859 744.397 139.844C753.494 145.83 780.748 170.729 761.366 197.502Z" fill="#87C6A8"/>
<path d="M724.622 270.75C724.622 270.75 719.189 252.422 740.696 230.422C764.134 206.448 771.714 191.725 767.863 173.563C767.863 173.563 768.654 192.194 738.824 220.182C710.484 246.773 724.622 270.75 724.622 270.75Z" fill="#87C6A8"/>
<path d="M724.886 68.1558C724.886 68.1558 722.695 87.6129 739.558 93.1103C756.421 98.6077 754.449 106.672 754.449 106.672C754.449 106.672 759.177 107.239 758.364 99.7801C757.551 92.3217 752.709 86.961 740.533 82.8739C731.307 79.776 732.326 72.5446 732.326 72.5446L724.886 68.1558Z" fill="#87C6A8"/>
<path d="M755.231 92.5518C755.231 92.5518 759.559 101.232 749.241 107.629C738.924 114.027 718.99 114.596 726.296 134.74C726.296 134.74 729.393 124.885 742.434 120.913C755.475 116.942 763.567 104.454 755.231 92.5518Z" fill="#87C6A8"/>
<path d="M148.749 159.708C148.749 159.708 140.703 138.041 156.98 125.204C173.256 112.369 194.354 113.41 195.294 95.7915C195.294 95.7915 183.793 100.77 173.269 105.476C162.744 110.182 130.481 131.092 148.749 159.708Z" fill="#E2AF54"/>
<path d="M183.968 229.456C185.842 223.756 186.466 218.049 185.844 212.075C185.805 211.706 185.761 211.337 185.715 210.968C183.14 202.098 178.562 192.294 170.884 184.719C140.355 154.605 144.198 135.486 144.198 135.486C138.101 152.757 144.797 168.105 167.77 194.494C188.852 218.71 181.014 235.944 181.014 235.944L181.682 235.44C182.536 233.471 183.304 231.474 183.968 229.456Z" fill="url(#paint36_linear_453_408)"/>
<path d="M165.301 59.1646C154.983 69.751 163.626 81.6931 177.393 87.217C191.16 92.7418 193.493 102.766 193.493 102.766C203.557 83.9933 181.935 80.9264 171.385 73.3722C167.545 70.6226 164.118 63.2143 165.191 60.9296C165.191 60.9296 164.561 59.7034 170.405 56.7668C175.343 54.2862 182.327 56.7614 182.327 56.7614L184.78 49.9119C184.78 49.9119 181.436 49.3631 175.358 51.7645C169.281 54.1667 165.301 59.1646 165.301 59.1646Z" fill="url(#paint37_linear_453_408)"/>
<path d="M490.021 265.699C490.147 268.036 490.214 270.384 489.956 272.704C489.883 273.364 489.781 274.021 489.664 274.676C487.401 278.38 484.275 281.454 481.044 284.415C472.128 292.582 461.853 299.266 456.231 310.153C454.594 313.323 453.236 316.654 451.995 320.023C452.171 319.767 452.344 319.508 452.523 319.254C453.672 317.622 454.945 315.976 456.34 314.414C457.524 312.836 458.822 311.332 460.274 309.922C467.904 302.518 477.486 296.609 483.952 288.129C486.141 285.258 487.56 281.98 488.825 278.641C489.189 278.358 491.769 271.521 491.416 271.607C492.656 268.157 493.751 264.661 494.052 260.965C494.852 251.155 492.521 241.34 487.177 232.811C481.88 224.359 474.538 217.259 466.69 210.987C459.156 204.965 449.898 199.219 446.107 190.052C445.478 188.53 445.053 186.911 444.884 185.284C448.029 181.78 452.141 179.747 456.35 177.623C460.755 175.399 465.404 172.519 469.233 169.474C472.978 166.494 474.983 162.6 476.636 158.265C476.678 158.157 476.72 158.047 476.762 157.939C476.966 158.165 478.834 153.194 479.101 151.804C480.393 148.239 481.491 144.601 481.866 140.829C482.382 135.646 481.047 130.618 478.291 126.064C475.445 121.361 471.542 117.356 466.198 115.422C463.26 114.359 460.121 113.656 457.052 113.119C454.324 112.641 451.24 111.605 448.615 112.63C447.812 112.944 446.855 117.229 446.552 118.052C446.079 119.335 445.607 120.618 445.15 121.908C445.065 122.147 444.778 123.448 444.603 123.517C446.946 122.602 449.042 123.405 451.465 123.752C454.237 124.149 457.017 124.767 459.717 125.527C465.026 127.021 468.995 129.757 472.302 134.064C475.13 137.747 477.218 142.061 477.824 146.589C478.114 148.754 477.989 150.925 477.69 153.064C477.648 153.363 477.598 153.659 477.545 153.953C474.797 158.144 470.404 160.611 466.17 163.212C464.101 164.484 462.113 165.885 459.914 166.952C457.511 168.118 455.181 169.215 453.027 170.785C449.411 173.422 446.719 176.598 445.089 180.721C445.01 180.921 444.927 181.124 444.845 181.326C444.399 180.93 442.25 186.807 441.874 188.777C441.16 190.972 440.691 193.206 440.815 195.403C441.352 204.984 450.461 212.656 457.824 218.137C465.893 224.144 473.627 230.78 479.706 238.728C485.971 246.918 489.476 255.634 490.021 265.699Z" fill="#EFAFAB"/>
<path d="M444.843 181.325C444.926 181.123 445.009 180.919 445.087 180.72C446.715 176.597 449.408 173.421 453.024 170.784C455.178 169.213 457.509 168.116 459.912 166.951C462.112 165.884 464.098 164.483 466.168 163.211C470.401 160.61 474.794 158.142 477.543 153.952L479.098 151.806C478.831 153.195 476.964 158.166 476.76 157.94C476.718 158.049 476.676 158.158 476.634 158.267C474.981 162.602 472.974 166.496 469.23 169.475C465.402 172.52 460.752 175.402 456.347 177.624C452.139 179.749 448.026 181.781 444.882 185.285L444.843 181.325Z" fill="#EFAFAB"/>
<path d="M488.822 278.641C487.559 281.98 486.138 285.258 483.949 288.129C477.483 296.61 467.902 302.519 460.272 309.921C458.82 311.331 457.522 312.835 456.338 314.414C454.943 315.976 453.671 317.621 452.521 319.253C452.341 319.508 452.169 319.767 451.993 320.023C453.234 316.653 454.591 313.323 456.229 310.153C461.85 299.266 472.125 292.583 481.042 284.414C484.274 281.454 487.4 278.379 489.662 274.676L488.822 278.641Z" fill="#EFAFAB"/>
<path d="M956.129 551.995C954.254 552.012 952.641 552.242 950.761 551.946C948.674 551.617 946.53 551.463 944.576 550.597C941.418 549.198 938.99 546.366 937.337 543.403C934.204 537.785 933.333 531.263 932.667 524.966C932.66 524.903 932.653 524.838 932.646 524.774C935.368 520.369 937.295 515.356 937.932 510.558C938.87 503.488 939.156 495.766 938.21 488.676C937.097 480.344 933.636 471.927 926.878 466.603C924.47 464.705 921.698 463.606 918.762 463.051C916.942 465.725 915.163 468.427 913.412 471.147C916.646 471.212 920.01 471.533 922.917 472.864C929.458 475.858 933.874 482.783 936.053 489.403C937.182 492.832 937.815 496.414 938.089 500.008C938.161 500.948 938.204 501.887 938.228 502.827C938.23 502.931 938.23 503.036 938.231 503.14C937.893 504.67 936.724 508.486 936.577 508.872C935.371 512.037 933.761 515.329 931.735 518.321C931.027 514.982 929.785 511.791 927.208 509.526C921.992 504.94 912.537 504.921 908.304 510.75C906.433 513.326 906.2 516.257 906.079 519.275C905.984 520.485 905.901 521.874 905.952 522.501C905.869 525.47 906.074 528.117 907.596 530.896C909.39 534.17 912.224 536.361 916.002 536.742C920.142 537.159 923.755 534.909 926.667 532.185C928.342 530.618 929.903 528.79 931.306 526.801C932.066 530.291 932.23 533.918 932.694 537.447C933.397 542.792 934.657 548.378 937.585 552.978C939.249 555.592 941.603 558.035 944.522 559.208C948.114 560.653 951.964 560.478 955.707 560.445C955.934 560.443 956.027 551.997 956.129 551.995ZM922.785 526.924C916.187 530.541 909.408 526.669 907.098 520.445C907.221 520.221 907.347 520 907.484 519.786C908.354 518.42 909.526 517.201 910.894 516.328C913.511 514.659 916.754 514.452 919.748 514.954C924.059 515.675 927.391 517.822 929.398 521.405C927.487 523.632 925.287 525.552 922.785 526.924Z" fill="#EFAFAB"/>
<path d="M938.24 488.734C937.128 480.403 933.667 471.985 926.909 466.661C924.501 464.763 921.729 463.664 918.792 463.109C916.973 465.783 915.194 468.484 913.443 471.206C916.677 471.27 920.041 471.591 922.948 472.922C929.489 475.916 933.904 482.841 936.084 489.461C937.213 492.89 937.729 495.165 938.004 498.76C938.076 499.698 938.263 503.197 938.263 503.197C938.846 500.659 938.24 488.734 938.24 488.734ZM907.127 520.501C907.127 520.501 907.704 519.556 908.504 518.506C909.305 517.458 909.347 517.619 911.262 516.181C913.177 514.742 917.006 514.204 922.229 515.609C927.494 517.025 929.428 521.46 929.428 521.46C929.428 521.46 930.08 520.642 930.742 518.463C931.404 516.283 930.58 514.426 929.685 512.6C928.791 510.775 927.238 509.583 927.238 509.583C922.022 504.996 912.567 504.977 908.334 510.806C906.5 513.332 906.405 516.721 906.404 516.781C906.312 518.608 907.127 520.501 907.127 520.501Z" fill="#EFAFAB"/>
<path d="M96.8143 578.711C96.8143 578.711 86.6198 561.751 98.2894 548.372C109.959 534.992 127.88 532.527 125.887 517.551C125.887 517.551 116.994 523.563 108.881 529.19C100.768 534.817 76.9186 557.522 96.8143 578.711Z" fill="#E2AF54"/>
<path d="M136.016 637.759C136.016 637.759 139.889 622.014 118.321 604.974C94.8182 586.404 86.7571 574.548 89.1593 559.048C89.1593 559.048 89.6498 574.739 119.396 596.256C147.658 616.696 136.016 637.759 136.016 637.759Z" fill="url(#paint38_linear_453_408)"/>
<path d="M122.402 467.723C122.402 467.723 125.735 483.91 110.326 489.643C94.9163 495.375 97.2922 502.012 97.2922 502.012C97.2922 502.012 92.907 502.802 93.1759 496.488C93.444 490.173 97.6195 485.353 108.737 481.115C117.162 477.904 115.733 471.9 115.733 471.9L122.402 467.723Z" fill="#E2AF54"/>
<path d="M95.6283 490.209C95.6283 490.209 92.1529 497.782 102.226 502.469C112.298 507.156 130.981 506.313 125.476 523.705C125.476 523.705 121.929 515.638 109.47 513.168C97.0094 510.7 88.6174 500.753 95.6283 490.209Z" fill="url(#paint39_linear_453_408)"/>
<path d="M854.742 336.011C854.591 338.179 854.485 340.364 854.631 342.568C854.673 343.195 854.735 343.824 854.811 344.452C856.476 348.222 858.823 351.523 861.256 354.73C867.966 363.581 875.761 371.227 879.86 382.17C881.053 385.356 882.027 388.654 882.909 391.972C882.779 391.709 882.651 391.443 882.518 391.181C881.667 389.499 880.72 387.788 879.676 386.137C878.797 384.501 877.827 382.917 876.736 381.402C871.004 373.442 863.727 366.613 858.92 357.804C857.293 354.822 856.27 351.566 855.369 348.272C855.094 347.957 853.255 341.215 853.527 341.344C852.646 337.949 851.879 334.533 851.731 331.037C851.339 321.759 853.367 312.902 857.698 305.66C861.991 298.481 867.834 292.847 874.049 288.054C880.016 283.453 887.311 279.345 890.454 271.293C890.977 269.957 891.341 268.501 891.51 267.004C889.158 263.3 886.023 260.839 882.816 258.281C879.459 255.602 875.928 252.275 873.037 248.907C870.208 245.612 868.745 241.699 867.566 237.421C867.536 237.314 867.506 237.206 867.477 237.099C867.314 237.282 865.984 232.381 865.809 231.046C864.891 227.537 864.126 223.988 863.922 220.41C863.642 215.495 864.79 210.977 867.027 207.096C869.337 203.088 872.449 199.877 876.628 198.798C878.925 198.204 881.369 197.977 883.756 197.893C885.878 197.818 888.287 197.27 890.295 198.586C890.909 198.988 891.55 203.124 891.766 203.934C892.103 205.198 892.438 206.462 892.762 207.729C892.822 207.965 893.013 209.219 893.148 209.307C891.357 208.133 889.716 208.598 887.834 208.591C885.68 208.585 883.515 208.783 881.409 209.125C877.269 209.797 874.135 211.814 871.478 215.388C869.205 218.445 867.491 222.193 866.917 226.342C866.643 228.325 866.689 230.37 866.872 232.412C866.897 232.697 866.929 232.98 866.964 233.262C868.994 237.554 872.335 240.459 875.551 243.468C877.123 244.938 878.628 246.519 880.305 247.816C882.138 249.234 883.916 250.577 885.546 252.339C888.283 255.297 890.292 258.633 891.457 262.708C891.514 262.906 891.573 263.106 891.632 263.308C891.986 262.998 893.514 268.785 893.759 270.676C894.26 272.825 894.572 274.977 894.426 277.013C893.79 285.895 886.567 291.825 880.745 295.944C874.364 300.459 868.228 305.606 863.342 312.206C858.307 319.009 855.396 326.679 854.742 336.011Z" fill="url(#paint40_linear_453_408)"/>
<path d="M891.633 263.308C891.574 263.108 891.514 262.906 891.458 262.708C890.293 258.633 888.283 255.297 885.547 252.34C883.916 250.578 882.139 249.235 880.306 247.817C878.629 246.52 877.124 244.939 875.552 243.468C872.336 240.46 868.995 237.554 866.965 233.263L865.811 231.045C865.985 232.38 867.316 237.281 867.479 237.098C867.509 237.205 867.539 237.313 867.568 237.42C868.747 241.698 870.209 245.611 873.038 248.906C875.93 252.274 879.461 255.601 882.818 258.28C886.024 260.839 889.16 263.299 891.512 267.003L891.633 263.308Z" fill="#E2AF54"/>
<path d="M855.37 348.272C856.271 351.566 857.294 354.822 858.921 357.804C863.729 366.613 871.005 373.441 876.738 381.402C877.829 382.917 878.798 384.5 879.678 386.137C880.721 387.787 881.668 389.499 882.519 391.181C882.652 391.443 882.78 391.709 882.911 391.972C882.028 388.654 881.054 385.356 879.861 382.17C875.762 371.227 867.967 363.581 861.257 354.73C858.826 351.523 856.477 348.222 854.812 344.452L855.37 348.272Z" fill="#E2AF54"/>
<path d="M180.065 471.473C184.975 464.469 187.079 455.134 187.849 446.165C188.834 434.699 185.498 423.157 183.501 411.794C182.529 406.265 182.004 400.924 183.686 395.723C183.836 395.26 184.003 394.803 184.175 394.348C185.265 395.958 186.451 397.51 187.735 399.006C189.098 400.594 190.714 402.172 192.581 402.911C193.979 403.464 195.37 403.289 196.726 402.908C196.827 402.991 198.094 402.581 200.519 401.679C202.343 401.15 204.325 400.62 205.684 399.23C207.306 397.573 207.7 395.089 207.491 392.632C207.262 389.931 206.44 387.733 204.364 386.045C202.15 384.246 199.472 383.275 196.834 383.143C194.114 383.006 191.56 384.062 189.04 384.868C188.436 385.061 187.84 385.25 187.254 385.452C183.828 378.074 181.651 369.656 180.287 361.766C179.562 357.566 179.88 353.391 180.691 349.362C181.369 345.995 182.144 342.765 184.353 340.367C185.143 344.232 186.707 347.936 189.388 350.752C192.877 354.417 198.319 356.698 202.844 355.791C202.785 355.818 202.733 355.849 202.672 355.874C202.862 355.814 203.051 355.754 203.241 355.693C203.394 355.655 203.549 355.624 203.699 355.58C206.094 354.861 209.31 354.416 211.311 352.725C213.321 351.028 213.632 348.12 212.947 345.412C212.312 342.899 211.67 339.634 209.791 337.795C208.019 336.06 205.474 335.66 203.306 335.129C198.958 334.065 194.944 334.866 190.953 336.063C190.495 332.687 190.575 329.253 191.015 325.966C191.314 323.734 191.833 321.575 192.424 319.442C192.984 317.421 193.454 315.304 194.853 313.827C194.259 314.453 192.179 314.629 191.361 314.889C190.454 315.176 188.582 315.303 187.893 316.03C186.12 317.899 185.594 320.983 184.954 323.559C184.168 326.717 183.714 329.979 183.693 333.319C183.682 334.971 183.784 336.675 184.017 338.373C180.916 339.586 177.947 341.264 176.057 344.27C174.687 346.45 174.158 349.332 173.654 351.943C173.029 355.183 172.695 358.564 173.04 361.949C173.373 365.217 174.319 368.436 175.058 371.642C175.904 375.309 176.998 378.898 178.236 382.454C179.07 384.851 180.054 387.135 181.185 389.319C177.948 393.052 175.814 398.86 175.566 404.054C175.235 410.997 177.425 418.338 178.735 425.189C180.203 432.869 181.552 440.662 180.89 448.366C180.302 455.206 178.914 462.496 176.126 468.497C173.887 473.313 170.647 477.277 166.652 480.219C171.453 477.974 175.879 474.896 180.065 471.473ZM198.705 337.941C200.242 338.371 201.833 338.925 203.027 340.21C204.439 341.73 204.947 343.96 205.507 345.935C206.32 348.801 206.573 351.627 205.357 353.658C202.776 353.069 200.137 351.628 198.15 350.14C194.694 347.551 192.532 343.344 191.501 339.021C191.327 338.293 191.185 337.558 191.065 336.819C193.607 336.747 196.119 337.217 198.705 337.941ZM188.532 388.057C188.4 387.806 188.276 387.55 188.147 387.296C188.794 386.603 189.489 386.001 190.228 385.396C190.523 385.41 190.819 385.431 191.12 385.476C192.226 385.642 193.317 385.948 194.372 386.411C196.432 387.315 198.697 388.831 199.715 391.136C200.663 393.279 200.868 396.19 200.345 398.377C200.151 399.189 199.828 399.946 199.385 400.608C197.782 399.939 196.328 398.63 195.076 397.238C192.645 394.536 190.255 391.339 188.532 388.057Z" fill="#A5DBCA"/>
<path d="M191.064 336.82C191.064 336.82 191.67 336.814 192.625 336.841C193.582 336.869 193.575 336.89 194.051 336.968C195.488 337.204 199.363 338.134 201.029 339.062C202.696 339.99 203.422 340.686 204.367 342.363C205.312 344.041 206.015 348.188 206.187 350.454C206.358 352.721 205.354 353.658 205.354 353.658C205.354 353.658 205.85 354.074 206.651 354.142C207.454 354.211 208.963 354.065 209.77 353.709C210.578 353.353 211.306 352.716 211.306 352.716C213.316 351.019 213.627 348.111 212.942 345.403C212.308 342.89 211.665 339.624 209.786 337.786C208.014 336.051 205.469 335.65 203.301 335.12C198.952 334.056 194.938 334.857 190.948 336.053L191.064 336.82ZM188.859 385.187C189.884 385.13 189.998 385.311 191.12 385.477C192.243 385.642 193.941 386.232 196.019 387.26C198.096 388.287 198.263 389.013 199.413 390.54C200.562 392.067 200.559 394.499 200.583 396.854C200.607 399.209 199.386 400.609 199.386 400.609C199.386 400.609 200.802 401.415 201.46 401.408C202.119 401.402 203.153 400.831 204.123 400.38C205.093 399.928 205.681 399.223 205.681 399.223C207.302 397.565 207.696 395.082 207.487 392.625C207.258 389.924 206.436 387.726 204.36 386.038C202.147 384.238 199.468 383.268 196.83 383.135C194.11 382.999 191.557 384.054 189.037 384.86C188.432 385.053 187.836 385.243 187.25 385.445C187.25 385.445 187.834 385.243 188.859 385.187Z" fill="#A5DBCA"/>
<path d="M52.544 290.552C54.5141 290.736 56.1898 291.064 58.1946 291.005C60.4191 290.94 62.6883 291.015 64.8225 290.518C68.2723 289.716 71.0848 287.73 73.0933 285.57C76.9023 281.475 78.4157 276.468 79.692 271.618C79.7048 271.57 79.7176 271.52 79.7303 271.471C77.2715 267.786 75.7025 263.7 75.4719 259.9C75.1318 254.301 75.5375 248.252 77.1813 242.808C79.1131 236.412 83.5247 230.163 91.119 226.629C93.8267 225.369 96.8417 224.765 99.9806 224.601C101.65 226.853 103.274 229.123 104.867 231.405C101.459 231.16 97.8919 231.102 94.7129 231.874C87.5589 233.611 82.2812 238.608 79.3839 243.571C77.8832 246.142 76.8904 248.878 76.2723 251.656C76.1109 252.382 75.9797 253.11 75.8684 253.841C75.8566 253.923 75.8475 254.004 75.8356 254.085C76.0517 255.309 76.9324 258.393 77.0518 258.707C78.0309 261.286 79.4222 264.001 81.2802 266.52C82.3295 263.98 83.9286 261.605 86.8451 260.075C92.7509 256.976 102.697 257.825 106.617 262.759C108.349 264.939 108.325 267.246 108.177 269.611C108.166 270.563 108.126 271.654 108.015 272.139C107.832 274.462 107.374 276.508 105.519 278.536C103.333 280.926 100.151 282.375 96.1442 282.326C91.7517 282.272 88.1579 280.188 85.3435 277.796C83.7244 276.42 82.2502 274.852 80.9556 273.172C79.837 275.825 79.3328 278.638 78.5223 281.348C77.2943 285.452 75.4582 289.694 71.9564 293.014C69.9671 294.9 67.2685 296.59 64.0904 297.238C60.1802 298.036 56.147 297.547 52.214 297.179C51.9742 297.157 52.6498 290.562 52.544 290.552ZM89.9065 274.048C96.5144 277.472 103.999 275.073 106.999 270.429C106.89 270.243 106.776 270.059 106.652 269.88C105.862 268.735 104.74 267.677 103.382 266.871C100.782 265.33 97.3896 264.872 94.195 264.989C89.5947 265.156 85.8942 266.526 83.4554 269.138C85.2624 271.05 87.4003 272.749 89.9065 274.048Z" fill="url(#paint41_linear_453_408)"/>
<path d="M77.142 242.85C79.0738 236.453 83.4855 230.206 91.0798 226.67C93.7875 225.41 96.8024 224.807 99.9413 224.643C101.611 226.894 103.234 229.165 104.828 231.446C101.42 231.201 97.8527 231.144 94.6736 231.916C87.5197 233.653 82.2419 238.65 79.3446 243.613C77.844 246.184 77.0928 247.911 76.4747 250.69C76.3133 251.416 75.7964 254.127 75.7964 254.127C75.4144 252.095 77.142 242.85 77.142 242.85ZM106.959 270.471C106.959 270.471 106.44 269.681 105.693 268.79C104.946 267.898 104.887 268.021 103.005 266.724C101.124 265.427 97.1452 264.657 91.5229 265.275C85.8558 265.898 83.4162 269.181 83.4162 269.181C83.4162 269.181 82.8054 268.484 82.3085 266.723C81.8116 264.963 82.8482 263.59 83.9559 262.248C85.0636 260.906 86.8058 260.118 86.8058 260.118C92.7117 257.018 102.658 257.868 106.577 262.801C108.275 264.938 108.064 267.591 108.061 267.638C107.99 269.07 106.959 270.471 106.959 270.471Z" fill="#E2AF54"/>
<path d="M966.884 233.879L981.741 267.003L939.684 252.679L966.884 233.879Z" fill="#EFAFAB"/>
<path d="M685.778 167.855L706.898 141.496L728.174 177.92L685.778 167.855Z" fill="#F4C8C3"/>
<path d="M96.3428 341.242L135.96 323.368L106.289 362.896L96.3428 341.242Z" fill="#EFAFAB"/>
<path d="M100.797 326.523L116.094 307.431L131.505 333.813L100.797 326.523Z" fill="url(#paint42_linear_453_408)"/>
<path d="M320.818 65.9574L325.723 34.3394L353.895 50.8973L320.818 65.9574Z" fill="#F4C8C3"/>
<path d="M26.6286 543.036L10.1162 526.611L36.658 514.713L26.6286 543.036Z" fill="url(#paint43_linear_453_408)"/>
<path d="M966.687 248.659L954.509 221.92L990.179 216.107L966.687 248.659Z" fill="#87C6A8"/>
<path d="M66.1093 176.153L25.4502 210.24H71.0014L66.1093 176.153Z" fill="#A5DBCA"/>
<path d="M965.836 491.202L996.78 484.883L975.782 512.856L965.836 491.202Z" fill="url(#paint44_linear_453_408)"/>
<path d="M960.411 446.844L975.709 427.751L991.12 454.135L960.411 446.844Z" fill="url(#paint45_linear_453_408)"/>
<path d="M947.701 323.858L967.576 287.997L985.644 318.354L947.701 323.858Z" fill="#F4C8C3"/>
<defs>
<linearGradient id="paint0_linear_453_408" x1="472.657" y1="131.863" x2="525.286" y2="131.863" gradientUnits="userSpaceOnUse">
<stop offset="0.0056" stop-color="#FFF2A6"/>
<stop offset="1" stop-color="#CE8704"/>
</linearGradient>
<linearGradient id="paint1_linear_453_408" x1="387.841" y1="48.0611" x2="428.91" y2="48.0611" gradientUnits="userSpaceOnUse">
<stop offset="0.0056" stop-color="#FFF2A6"/>
<stop offset="1" stop-color="#CE8704"/>
</linearGradient>
<linearGradient id="paint2_linear_453_408" x1="179.713" y1="294.844" x2="192.441" y2="294.844" gradientUnits="userSpaceOnUse">
<stop offset="0.0056" stop-color="#A89100"/>
<stop offset="0.077" stop-color="#BCA10F"/>
<stop offset="0.1997" stop-color="#D9B824"/>
<stop offset="0.3216" stop-color="#EEC933"/>
<stop offset="0.4413" stop-color="#FBD33C"/>
<stop offset="0.5562" stop-color="#FFD63F"/>
<stop offset="0.6447" stop-color="#FAD23C"/>
<stop offset="0.7437" stop-color="#EDC832"/>
<stop offset="0.8478" stop-color="#D7B622"/>
<stop offset="0.9547" stop-color="#B89D0B"/>
<stop offset="1" stop-color="#A89100"/>
</linearGradient>
<linearGradient id="paint3_linear_453_408" x1="494.992" y1="178.373" x2="522.506" y2="178.373" gradientUnits="userSpaceOnUse">
<stop offset="0.0056" stop-color="#A89100"/>
<stop offset="0.077" stop-color="#BCA10F"/>
<stop offset="0.1997" stop-color="#D9B824"/>
<stop offset="0.3216" stop-color="#EEC933"/>
<stop offset="0.4413" stop-color="#FBD33C"/>
<stop offset="0.5562" stop-color="#FFD63F"/>
<stop offset="0.6447" stop-color="#FAD23C"/>
<stop offset="0.7437" stop-color="#EDC832"/>
<stop offset="0.8478" stop-color="#D7B622"/>
<stop offset="0.9547" stop-color="#B89D0B"/>
<stop offset="1" stop-color="#A89100"/>
</linearGradient>
<linearGradient id="paint4_linear_453_408" x1="265.217" y1="93.197" x2="300.078" y2="93.197" gradientUnits="userSpaceOnUse">
<stop offset="0.0056" stop-color="#FFF2A6"/>
<stop offset="1" stop-color="#CE8704"/>
</linearGradient>
<linearGradient id="paint5_linear_453_408" x1="413.217" y1="73.8127" x2="425.08" y2="73.8127" gradientUnits="userSpaceOnUse">
<stop offset="0.0056" stop-color="#A89100"/>
<stop offset="0.077" stop-color="#BCA10F"/>
<stop offset="0.1997" stop-color="#D9B824"/>
<stop offset="0.3216" stop-color="#EEC933"/>
<stop offset="0.4413" stop-color="#FBD33C"/>
<stop offset="0.5562" stop-color="#FFD63F"/>
<stop offset="0.6447" stop-color="#FAD23C"/>
<stop offset="0.7437" stop-color="#EDC832"/>
<stop offset="0.8478" stop-color="#D7B622"/>
<stop offset="0.9547" stop-color="#B89D0B"/>
<stop offset="1" stop-color="#A89100"/>
</linearGradient>
<linearGradient id="paint6_linear_453_408" x1="11.6946" y1="743.509" x2="39.2088" y2="743.509" gradientUnits="userSpaceOnUse">
<stop offset="0.0056" stop-color="#A89100"/>
<stop offset="0.077" stop-color="#BCA10F"/>
<stop offset="0.1997" stop-color="#D9B824"/>
<stop offset="0.3216" stop-color="#EEC933"/>
<stop offset="0.4413" stop-color="#FBD33C"/>
<stop offset="0.5562" stop-color="#FFD63F"/>
<stop offset="0.6447" stop-color="#FAD23C"/>
<stop offset="0.7437" stop-color="#EDC832"/>
<stop offset="0.8478" stop-color="#D7B622"/>
<stop offset="0.9547" stop-color="#B89D0B"/>
<stop offset="1" stop-color="#A89100"/>
</linearGradient>
<linearGradient id="paint7_linear_453_408" x1="677.654" y1="137.819" x2="701.034" y2="137.819" gradientUnits="userSpaceOnUse">
<stop offset="0.0056" stop-color="#FFF2A6"/>
<stop offset="1" stop-color="#CE8704"/>
</linearGradient>
<linearGradient id="paint8_linear_453_408" x1="49.6896" y1="107.797" x2="82.8276" y2="107.797" gradientUnits="userSpaceOnUse">
<stop offset="0.0056" stop-color="#FFF2A6"/>
<stop offset="1" stop-color="#CE8704"/>
</linearGradient>
<linearGradient id="paint9_linear_453_408" x1="5.97958" y1="656.394" x2="39.9554" y2="656.394" gradientUnits="userSpaceOnUse">
<stop offset="0.0056" stop-color="#FFF2A6"/>
<stop offset="1" stop-color="#CE8704"/>
</linearGradient>
<linearGradient id="paint10_linear_453_408" x1="931.676" y1="660.942" x2="964.444" y2="660.942" gradientUnits="userSpaceOnUse">
<stop offset="0.0056" stop-color="#A89100"/>
<stop offset="0.077" stop-color="#BCA10F"/>
<stop offset="0.1997" stop-color="#D9B824"/>
<stop offset="0.3216" stop-color="#EEC933"/>
<stop offset="0.4413" stop-color="#FBD33C"/>
<stop offset="0.5562" stop-color="#FFD63F"/>
<stop offset="0.6447" stop-color="#FAD23C"/>
<stop offset="0.7437" stop-color="#EDC832"/>
<stop offset="0.8478" stop-color="#D7B622"/>
<stop offset="0.9547" stop-color="#B89D0B"/>
<stop offset="1" stop-color="#A89100"/>
</linearGradient>
<linearGradient id="paint11_linear_453_408" x1="221.163" y1="200.021" x2="254.301" y2="200.021" gradientUnits="userSpaceOnUse">
<stop offset="0.0056" stop-color="#FFF2A6"/>
<stop offset="1" stop-color="#CE8704"/>
</linearGradient>
<linearGradient id="paint12_linear_453_408" x1="967.084" y1="48.1549" x2="1004.12" y2="48.1549" gradientUnits="userSpaceOnUse">
<stop offset="0.0056" stop-color="#FFF2A6"/>
<stop offset="1" stop-color="#CE8704"/>
</linearGradient>
<linearGradient id="paint13_linear_453_408" x1="581.565" y1="118.851" x2="593.963" y2="118.851" gradientUnits="userSpaceOnUse">
<stop offset="0.0056" stop-color="#A89100"/>
<stop offset="0.077" stop-color="#BCA10F"/>
<stop offset="0.1997" stop-color="#D9B824"/>
<stop offset="0.3216" stop-color="#EEC933"/>
<stop offset="0.4413" stop-color="#FBD33C"/>
<stop offset="0.5562" stop-color="#FFD63F"/>
<stop offset="0.6447" stop-color="#FAD23C"/>
<stop offset="0.7437" stop-color="#EDC832"/>
<stop offset="0.8478" stop-color="#D7B622"/>
<stop offset="0.9547" stop-color="#B89D0B"/>
<stop offset="1" stop-color="#A89100"/>
</linearGradient>
<linearGradient id="paint14_linear_453_408" x1="813.044" y1="100.933" x2="823.76" y2="100.933" gradientUnits="userSpaceOnUse">
<stop offset="0.0056" stop-color="#A89100"/>
<stop offset="0.077" stop-color="#BCA10F"/>
<stop offset="0.1997" stop-color="#D9B824"/>
<stop offset="0.3216" stop-color="#EEC933"/>
<stop offset="0.4413" stop-color="#FBD33C"/>
<stop offset="0.5562" stop-color="#FFD63F"/>
<stop offset="0.6447" stop-color="#FAD23C"/>
<stop offset="0.7437" stop-color="#EDC832"/>
<stop offset="0.8478" stop-color="#D7B622"/>
<stop offset="0.9547" stop-color="#B89D0B"/>
<stop offset="1" stop-color="#A89100"/>
</linearGradient>
<linearGradient id="paint15_linear_453_408" x1="46.4733" y1="161.822" x2="60.0501" y2="161.822" gradientUnits="userSpaceOnUse">
<stop offset="0.0056" stop-color="#FFF2A6"/>
<stop offset="1" stop-color="#CE8704"/>
</linearGradient>
<linearGradient id="paint16_linear_453_408" x1="921.441" y1="204.008" x2="931.758" y2="204.008" gradientUnits="userSpaceOnUse">
<stop offset="0.0056" stop-color="#A89100"/>
<stop offset="0.077" stop-color="#BCA10F"/>
<stop offset="0.1997" stop-color="#D9B824"/>
<stop offset="0.3216" stop-color="#EEC933"/>
<stop offset="0.4413" stop-color="#FBD33C"/>
<stop offset="0.5562" stop-color="#FFD63F"/>
<stop offset="0.6447" stop-color="#FAD23C"/>
<stop offset="0.7437" stop-color="#EDC832"/>
<stop offset="0.8478" stop-color="#D7B622"/>
<stop offset="0.9547" stop-color="#B89D0B"/>
<stop offset="1" stop-color="#A89100"/>
</linearGradient>
<linearGradient id="paint17_linear_453_408" x1="48.5951" y1="643.883" x2="60.9259" y2="643.883" gradientUnits="userSpaceOnUse">
<stop offset="0.0056" stop-color="#A89100"/>
<stop offset="0.077" stop-color="#BCA10F"/>
<stop offset="0.1997" stop-color="#D9B824"/>
<stop offset="0.3216" stop-color="#EEC933"/>
<stop offset="0.4413" stop-color="#FBD33C"/>
<stop offset="0.5562" stop-color="#FFD63F"/>
<stop offset="0.6447" stop-color="#FAD23C"/>
<stop offset="0.7437" stop-color="#EDC832"/>
<stop offset="0.8478" stop-color="#D7B622"/>
<stop offset="0.9547" stop-color="#B89D0B"/>
<stop offset="1" stop-color="#A89100"/>
</linearGradient>
<linearGradient id="paint18_linear_453_408" x1="585.07" y1="38.8799" x2="601.064" y2="38.8799" gradientUnits="userSpaceOnUse">
<stop offset="0.0056" stop-color="#FFF2A6"/>
<stop offset="1" stop-color="#CE8704"/>
</linearGradient>
<linearGradient id="paint19_linear_453_408" x1="93.7809" y1="146.854" x2="106.686" y2="146.854" gradientUnits="userSpaceOnUse">
<stop offset="0.0056" stop-color="#FFF2A6"/>
<stop offset="1" stop-color="#CE8704"/>
</linearGradient>
<linearGradient id="paint20_linear_453_408" x1="30.7537" y1="127.75" x2="42.6306" y2="127.75" gradientUnits="userSpaceOnUse">
<stop offset="0.0056" stop-color="#A89100"/>
<stop offset="0.077" stop-color="#BCA10F"/>
<stop offset="0.1997" stop-color="#D9B824"/>
<stop offset="0.3216" stop-color="#EEC933"/>
<stop offset="0.4413" stop-color="#FBD33C"/>
<stop offset="0.5562" stop-color="#FFD63F"/>
<stop offset="0.6447" stop-color="#FAD23C"/>
<stop offset="0.7437" stop-color="#EDC832"/>
<stop offset="0.8478" stop-color="#D7B622"/>
<stop offset="0.9547" stop-color="#B89D0B"/>
<stop offset="1" stop-color="#A89100"/>
</linearGradient>
<linearGradient id="paint21_linear_453_408" x1="36.6928" y1="513.87" x2="69.8308" y2="513.87" gradientUnits="userSpaceOnUse">
<stop offset="0.0056" stop-color="#FFF2A6"/>
<stop offset="1" stop-color="#CE8704"/>
</linearGradient>
<linearGradient id="paint22_linear_453_408" x1="947.608" y1="198.62" x2="975.619" y2="198.62" gradientUnits="userSpaceOnUse">
<stop offset="0.0056" stop-color="#FFF2A6"/>
<stop offset="1" stop-color="#CE8704"/>
</linearGradient>
<linearGradient id="paint23_linear_453_408" x1="139.256" y1="548.131" x2="156.34" y2="548.131" gradientUnits="userSpaceOnUse">
<stop offset="0.0056" stop-color="#A89100"/>
<stop offset="0.077" stop-color="#BCA10F"/>
<stop offset="0.1997" stop-color="#D9B824"/>
<stop offset="0.3216" stop-color="#EEC933"/>
<stop offset="0.4413" stop-color="#FBD33C"/>
<stop offset="0.5562" stop-color="#FFD63F"/>
<stop offset="0.6447" stop-color="#FAD23C"/>
<stop offset="0.7437" stop-color="#EDC832"/>
<stop offset="0.8478" stop-color="#D7B622"/>
<stop offset="0.9547" stop-color="#B89D0B"/>
<stop offset="1" stop-color="#A89100"/>
</linearGradient>
<linearGradient id="paint24_linear_453_408" x1="67.6496" y1="307.596" x2="86.4155" y2="307.596" gradientUnits="userSpaceOnUse">
<stop offset="0.0056" stop-color="#A89100"/>
<stop offset="0.077" stop-color="#BCA10F"/>
<stop offset="0.1997" stop-color="#D9B824"/>
<stop offset="0.3216" stop-color="#EEC933"/>
<stop offset="0.4413" stop-color="#FBD33C"/>
<stop offset="0.5562" stop-color="#FFD63F"/>
<stop offset="0.6447" stop-color="#FAD23C"/>
<stop offset="0.7437" stop-color="#EDC832"/>
<stop offset="0.8478" stop-color="#D7B622"/>
<stop offset="0.9547" stop-color="#B89D0B"/>
<stop offset="1" stop-color="#A89100"/>
</linearGradient>
<linearGradient id="paint25_linear_453_408" x1="791.335" y1="264.79" x2="805.761" y2="264.79" gradientUnits="userSpaceOnUse">
<stop offset="0.0056" stop-color="#FFF2A6"/>
<stop offset="1" stop-color="#CE8704"/>
</linearGradient>
<linearGradient id="paint26_linear_453_408" x1="271.373" y1="194.199" x2="297.932" y2="194.199" gradientUnits="userSpaceOnUse">
<stop offset="0.0056" stop-color="#A89100"/>
<stop offset="0.077" stop-color="#BCA10F"/>
<stop offset="0.1997" stop-color="#D9B824"/>
<stop offset="0.3216" stop-color="#EEC933"/>
<stop offset="0.4413" stop-color="#FBD33C"/>
<stop offset="0.5562" stop-color="#FFD63F"/>
<stop offset="0.6447" stop-color="#FAD23C"/>
<stop offset="0.7437" stop-color="#EDC832"/>
<stop offset="0.8478" stop-color="#D7B622"/>
<stop offset="0.9547" stop-color="#B89D0B"/>
<stop offset="1" stop-color="#A89100"/>
</linearGradient>
<linearGradient id="paint27_linear_453_408" x1="835.186" y1="137.818" x2="869.857" y2="137.818" gradientUnits="userSpaceOnUse">
<stop offset="0.0056" stop-color="#FFF2A6"/>
<stop offset="1" stop-color="#CE8704"/>
</linearGradient>
<linearGradient id="paint28_linear_453_408" x1="862.505" y1="575.096" x2="883.642" y2="575.096" gradientUnits="userSpaceOnUse">
<stop offset="0.0056" stop-color="#FFF2A6"/>
<stop offset="1" stop-color="#CE8704"/>
</linearGradient>
<linearGradient id="paint29_linear_453_408" x1="556.156" y1="102.639" x2="578.757" y2="102.639" gradientUnits="userSpaceOnUse">
<stop offset="0.0056" stop-color="#FFF2A6"/>
<stop offset="1" stop-color="#CE8704"/>
</linearGradient>
<linearGradient id="paint30_linear_453_408" x1="76.4322" y1="381.886" x2="88.2487" y2="381.886" gradientUnits="userSpaceOnUse">
<stop offset="0.0056" stop-color="#FFF2A6"/>
<stop offset="1" stop-color="#CE8704"/>
</linearGradient>
<linearGradient id="paint31_linear_453_408" x1="975.764" y1="356.294" x2="994.383" y2="356.294" gradientUnits="userSpaceOnUse">
<stop offset="0.0056" stop-color="#FFF2A6"/>
<stop offset="1" stop-color="#CE8704"/>
</linearGradient>
<linearGradient id="paint32_linear_453_408" x1="869.411" y1="32.3551" x2="888.031" y2="32.3551" gradientUnits="userSpaceOnUse">
<stop offset="0.0056" stop-color="#A89100"/>
<stop offset="0.077" stop-color="#BCA10F"/>
<stop offset="0.1997" stop-color="#D9B824"/>
<stop offset="0.3216" stop-color="#EEC933"/>
<stop offset="0.4413" stop-color="#FBD33C"/>
<stop offset="0.5562" stop-color="#FFD63F"/>
<stop offset="0.6447" stop-color="#FAD23C"/>
<stop offset="0.7437" stop-color="#EDC832"/>
<stop offset="0.8478" stop-color="#D7B622"/>
<stop offset="0.9547" stop-color="#B89D0B"/>
<stop offset="1" stop-color="#A89100"/>
</linearGradient>
<linearGradient id="paint33_linear_453_408" x1="603.858" y1="225.551" x2="628.386" y2="225.551" gradientUnits="userSpaceOnUse">
<stop offset="0.0056" stop-color="#FFF2A6"/>
<stop offset="1" stop-color="#CE8704"/>
</linearGradient>
<linearGradient id="paint34_linear_453_408" x1="44.4899" y1="391.971" x2="56.3064" y2="391.971" gradientUnits="userSpaceOnUse">
<stop offset="0.0056" stop-color="#FFF2A6"/>
<stop offset="1" stop-color="#CE8704"/>
</linearGradient>
<linearGradient id="paint35_linear_453_408" x1="291.427" y1="65.9575" x2="303.243" y2="65.9575" gradientUnits="userSpaceOnUse">
<stop offset="0.0056" stop-color="#A89100"/>
<stop offset="0.077" stop-color="#BCA10F"/>
<stop offset="0.1997" stop-color="#D9B824"/>
<stop offset="0.3216" stop-color="#EEC933"/>
<stop offset="0.4413" stop-color="#FBD33C"/>
<stop offset="0.5562" stop-color="#FFD63F"/>
<stop offset="0.6447" stop-color="#FAD23C"/>
<stop offset="0.7437" stop-color="#EDC832"/>
<stop offset="0.8478" stop-color="#D7B622"/>
<stop offset="0.9547" stop-color="#B89D0B"/>
<stop offset="1" stop-color="#A89100"/>
</linearGradient>
<linearGradient id="paint36_linear_453_408" x1="142.062" y1="185.715" x2="186.076" y2="185.715" gradientUnits="userSpaceOnUse">
<stop offset="0.0056" stop-color="#FFF2A6"/>
<stop offset="1" stop-color="#CE8704"/>
</linearGradient>
<linearGradient id="paint37_linear_453_408" x1="160.758" y1="76.312" x2="196.097" y2="76.312" gradientUnits="userSpaceOnUse">
<stop offset="0.0056" stop-color="#FFF2A6"/>
<stop offset="1" stop-color="#CE8704"/>
</linearGradient>
<linearGradient id="paint38_linear_453_408" x1="88.753" y1="598.403" x2="138.392" y2="598.403" gradientUnits="userSpaceOnUse">
<stop offset="0.0056" stop-color="#FFF2A6"/>
<stop offset="1" stop-color="#CE8704"/>
</linearGradient>
<linearGradient id="paint39_linear_453_408" x1="93.081" y1="506.957" x2="126.469" y2="506.957" gradientUnits="userSpaceOnUse">
<stop offset="0.0056" stop-color="#FFF2A6"/>
<stop offset="1" stop-color="#CE8704"/>
</linearGradient>
<linearGradient id="paint40_linear_453_408" x1="851.685" y1="294.844" x2="894.463" y2="294.844" gradientUnits="userSpaceOnUse">
<stop offset="0.0056" stop-color="#FFF2A6"/>
<stop offset="1" stop-color="#CE8704"/>
</linearGradient>
<linearGradient id="paint41_linear_453_408" x1="52.1619" y1="261.135" x2="108.24" y2="261.135" gradientUnits="userSpaceOnUse">
<stop offset="0.0056" stop-color="#FFF2A6"/>
<stop offset="1" stop-color="#CE8704"/>
</linearGradient>
<linearGradient id="paint42_linear_453_408" x1="100.797" y1="320.622" x2="131.505" y2="320.622" gradientUnits="userSpaceOnUse">
<stop offset="0.0056" stop-color="#A89100"/>
<stop offset="0.077" stop-color="#BCA10F"/>
<stop offset="0.1997" stop-color="#D9B824"/>
<stop offset="0.3216" stop-color="#EEC933"/>
<stop offset="0.4413" stop-color="#FBD33C"/>
<stop offset="0.5562" stop-color="#FFD63F"/>
<stop offset="0.6447" stop-color="#FAD23C"/>
<stop offset="0.7437" stop-color="#EDC832"/>
<stop offset="0.8478" stop-color="#D7B622"/>
<stop offset="0.9547" stop-color="#B89D0B"/>
<stop offset="1" stop-color="#A89100"/>
</linearGradient>
<linearGradient id="paint43_linear_453_408" x1="10.1162" y1="528.874" x2="36.6577" y2="528.874" gradientUnits="userSpaceOnUse">
<stop offset="0.0056" stop-color="#A89100"/>
<stop offset="0.077" stop-color="#BCA10F"/>
<stop offset="0.1997" stop-color="#D9B824"/>
<stop offset="0.3216" stop-color="#EEC933"/>
<stop offset="0.4413" stop-color="#FBD33C"/>
<stop offset="0.5562" stop-color="#FFD63F"/>
<stop offset="0.6447" stop-color="#FAD23C"/>
<stop offset="0.7437" stop-color="#EDC832"/>
<stop offset="0.8478" stop-color="#D7B622"/>
<stop offset="0.9547" stop-color="#B89D0B"/>
<stop offset="1" stop-color="#A89100"/>
</linearGradient>
<linearGradient id="paint44_linear_453_408" x1="965.836" y1="498.87" x2="996.78" y2="498.87" gradientUnits="userSpaceOnUse">
<stop offset="0.0056" stop-color="#FFF2A6"/>
<stop offset="1" stop-color="#CE8704"/>
</linearGradient>
<linearGradient id="paint45_linear_453_408" x1="960.411" y1="440.943" x2="991.12" y2="440.943" gradientUnits="userSpaceOnUse">
<stop offset="0.0056" stop-color="#A89100"/>
<stop offset="0.077" stop-color="#BCA10F"/>
<stop offset="0.1997" stop-color="#D9B824"/>
<stop offset="0.3216" stop-color="#EEC933"/>
<stop offset="0.4413" stop-color="#FBD33C"/>
<stop offset="0.5562" stop-color="#FFD63F"/>
<stop offset="0.6447" stop-color="#FAD23C"/>
<stop offset="0.7437" stop-color="#EDC832"/>
<stop offset="0.8478" stop-color="#D7B622"/>
<stop offset="0.9547" stop-color="#B89D0B"/>
<stop offset="1" stop-color="#A89100"/>
</linearGradient>
</defs>
</svg>
