<svg width="32" height="32" viewBox="0 0 32 32" fill="none" xmlns="http://www.w3.org/2000/svg">
<path d="M27.1599 4.65993C33.3732 10.8732 33.3732 20.9468 27.16 27.16C20.9468 33.3732 10.8732 33.3732 4.65993 27.1599C-1.5533 20.9467 -1.55331 10.8731 4.65989 4.65989C10.8731 -1.55331 20.9467 -1.5533 27.1599 4.65993Z" fill="#D2D3D3"/>
<path d="M16.8766 28.5478L19.4237 20.6362C19.5168 20.3469 19.7863 20.1511 20.0901 20.152L28.4016 20.1744C29.0799 20.1763 29.3622 19.3076 28.8124 18.9104L22.075 14.0431C21.8287 13.8652 21.7258 13.5484 21.8205 13.2597L24.4102 5.36192C24.6215 4.71742 23.8825 4.18054 23.3349 4.58067L16.6239 9.48421C16.3786 9.66348 16.0455 9.66348 15.8001 9.48421L9.08916 4.58067C8.54152 4.18054 7.80254 4.71742 8.01387 5.36192L10.6036 13.2597C10.6983 13.5484 10.5953 13.8652 10.349 14.0431L3.61168 18.9104C3.06192 19.3075 3.34419 20.1763 4.02239 20.1744L12.3339 20.152C12.6377 20.1511 12.9072 20.347 13.0003 20.6362L15.5474 28.5478C15.7554 29.1934 16.6688 29.1934 16.8766 28.5478Z" fill="#F5F7FA"/>
</svg>
