<svg width="20" height="20" viewBox="0 0 20 20" fill="none" xmlns="http://www.w3.org/2000/svg">
<path d="M19.738 10.2281C19.7389 9.54663 19.6809 8.8664 19.5646 8.19482H10.0688V12.046H15.5076C15.3963 12.6611 15.1607 13.2475 14.8151 13.7697C14.4695 14.292 14.021 14.7393 13.4966 15.0848V17.5846H16.7425C18.643 15.8444 19.738 13.271 19.738 10.2281Z" fill="#4285F4"/>
<path d="M10.0688 20C12.7861 20 15.074 19.1139 16.7424 17.5862L13.4965 15.0864C12.5931 15.6947 11.4295 16.0419 10.0688 16.0419C7.44242 16.0419 5.21322 14.2836 4.41607 11.9143H1.07227V14.4906C1.91034 16.1467 3.19543 17.5389 4.78408 18.5118C6.37272 19.4847 8.20238 19.9999 10.0688 20Z" fill="#34A853"/>
<path d="M4.416 11.9139C3.99458 10.6723 3.99458 9.32781 4.416 8.08627V5.51001H1.07219C0.367172 6.90321 0 8.44083 0 10.0001C0 11.5593 0.367172 13.0969 1.07219 14.4901L4.416 11.9139Z" fill="#FBBC04"/>
<path d="M10.0688 3.95879C11.5048 3.93549 12.8923 4.47429 13.9315 5.45872L16.8054 2.60469C14.983 0.904883 12.5688 -0.0283412 10.0688 0.000656061C8.20238 0.000740536 6.37272 0.515984 4.78408 1.48886C3.19543 2.46174 1.91034 3.85397 1.07227 5.5101L4.41607 8.08636C5.21322 5.71704 7.44242 3.95879 10.0688 3.95879Z" fill="#EA4335"/>
</svg>
