<svg width="32" height="32" viewBox="0 0 32 32" fill="none" xmlns="http://www.w3.org/2000/svg">
<path d="M5.44938 28.0285C5.03134 27.6614 4.63251 27.2729 4.25456 26.8648C4.09618 26.6937 3.94146 26.5191 3.79065 26.3411C1.426 23.5524 0 19.9428 0 16C0 7.16352 7.16351 0 16 0C24.8365 0 32 7.16352 32 16C32 19.9428 30.574 23.5524 28.2093 26.3411C28.0585 26.5191 27.9038 26.6937 27.7454 26.8648C27.3675 27.2729 26.9686 27.6614 26.5506 28.0285H5.44938Z" fill="#DCDCE0"/>
<path d="M26.5504 28.0286C23.7339 30.501 20.0417 32 15.9998 32C11.9579 32 8.26569 30.501 5.44922 28.0286C7.81839 24.2679 11.6614 21.8226 15.9998 21.8226C20.3382 21.8226 24.1812 24.2679 26.5504 28.0286Z" fill="#AAAAB2"/>
<path d="M15.9993 19.1485C19.5683 19.1485 22.4616 16.2552 22.4616 12.6862C22.4616 9.11724 19.5683 6.224 15.9993 6.224C12.4304 6.224 9.53711 9.11724 9.53711 12.6862C9.53711 16.2552 12.4304 19.1485 15.9993 19.1485Z" fill="#AAAAB2"/>
</svg>
