<svg width="432" height="417" viewBox="0 0 432 417" fill="none" xmlns="http://www.w3.org/2000/svg">
<path d="M221.305 346.577C192.038 339.132 183.726 330.107 182.441 322.533C180.338 310.136 197.205 302.496 194.947 288.369C192.346 272.093 167.8 268.717 168.556 258.018C169.374 246.454 198.272 247.281 204.236 230.631C209.643 215.538 188.797 206.755 188.958 184.832C189.149 158.658 218.999 152.515 224.245 122.718C227.827 102.371 217.458 85.0753 209.321 71.5028C191.013 40.9634 153.398 11.2697 110.832 14.2793C105.027 14.6899 71.1398 17.086 62.7466 36.9551C54.2381 57.0968 74.5492 88.9881 95.3287 105.889C110.39 118.14 123.012 120.331 123.678 129.976C124.575 142.978 102.238 147.731 100.118 166.679C98.9972 176.696 104.135 185.254 109.189 193.671C120.643 212.751 131.814 212.04 133.453 222.613C135.696 237.079 115.49 242.989 111.004 264.633C107.809 280.055 114.659 293.494 118.519 301.067C133.566 330.587 174.093 347.494 221.305 346.577Z" fill="#4CAF4F"/>
<mask id="mask0_347_2833" style="mask-type:luminance" maskUnits="userSpaceOnUse" x="60" y="14" width="165" height="333">
<path d="M221.305 346.577C192.038 339.132 183.726 330.107 182.441 322.533C180.338 310.136 197.205 302.496 194.947 288.369C192.346 272.093 167.8 268.717 168.556 258.018C169.374 246.454 198.272 247.281 204.236 230.631C209.643 215.538 188.797 206.755 188.958 184.832C189.149 158.658 218.999 152.515 224.245 122.718C227.827 102.371 217.458 85.0753 209.321 71.5028C191.013 40.9634 153.398 11.2697 110.832 14.2793C105.027 14.6899 71.1398 17.086 62.7466 36.9551C54.2381 57.0968 74.5492 88.9881 95.3287 105.889C110.39 118.14 123.012 120.331 123.678 129.976C124.575 142.978 102.238 147.731 100.118 166.679C98.9972 176.696 104.135 185.254 109.189 193.671C120.643 212.751 131.814 212.04 133.453 222.613C135.696 237.079 115.49 242.989 111.004 264.633C107.809 280.055 114.659 293.494 118.519 301.067C133.566 330.587 174.093 347.494 221.305 346.577Z" fill="white"/>
</mask>
<g mask="url(#mask0_347_2833)">
<path opacity="0.7" d="M51.9799 26.864C70.3967 35.3092 88.7775 43.8413 107.132 52.4313C116.324 56.6958 125.477 61.0401 134.557 65.5481C139.1 67.7955 143.631 70.0688 148.13 72.4146C152.627 74.7639 157.098 77.1746 161.451 79.8262C163.625 81.1556 165.769 82.5483 167.825 84.091C168.86 84.8514 169.85 85.6831 170.821 86.54C171.775 87.4211 172.693 88.3521 173.528 89.3709C174.355 90.3951 175.088 91.5144 175.672 92.7134C176.258 93.9116 176.683 95.1866 176.965 96.4757C177.491 99.0583 177.566 101.745 177.076 104.338C176.602 106.932 175.625 109.397 174.395 111.678C173.164 113.967 171.659 116.066 170.088 118.086C166.927 122.122 163.402 125.784 160.028 129.544C156.65 133.294 153.377 137.132 150.677 141.338C149.35 143.45 148.137 145.632 147.182 147.924C146.253 150.223 145.518 152.597 145.097 155.035C144.321 159.906 144.62 164.993 146.134 169.694C146.899 172.043 147.987 174.279 149.279 176.401C150.574 178.523 152.092 180.52 153.651 182.501C155.214 184.483 156.837 186.442 158.326 188.534C159.081 189.57 159.776 190.658 160.445 191.762C161.084 192.886 161.707 194.025 162.205 195.226C163.25 197.606 163.928 200.152 164.231 202.73C164.539 205.31 164.513 207.909 164.21 210.479C163.899 213.049 163.275 215.591 162.315 217.999C161.349 220.404 160.1 222.685 158.67 224.815C155.842 229.102 152.328 232.818 149.875 237.135C148.644 239.282 147.751 241.6 147.35 244.017C146.972 246.433 147.036 248.93 147.512 251.351C147.99 253.769 148.868 256.1 150.084 258.255C151.319 260.401 152.833 262.394 154.509 264.257C157.836 268.008 161.72 271.334 164.872 275.412C166.446 277.441 167.796 279.687 168.712 282.119C169.61 284.557 170.055 287.156 170.055 289.743C170.042 292.328 169.606 294.936 168.663 297.355C167.721 299.777 166.326 301.963 164.951 304.08C163.599 306.194 162.249 308.345 161.873 310.759C161.419 313.158 161.984 315.654 163.103 317.831C164.262 320.007 165.891 321.935 167.731 323.626C169.569 325.324 171.59 326.833 173.691 328.217C177.918 330.959 182.427 333.269 187.04 335.332C191.652 337.401 196.368 339.243 201.131 340.951C205.896 342.655 210.706 344.241 215.552 345.706C225.238 348.662 235.037 351.245 244.876 353.653L244.86 353.721C234.999 351.4 225.174 348.903 215.454 346.031C210.591 344.607 205.762 343.062 200.973 341.398C196.187 339.728 191.443 337.924 186.793 335.888C182.143 333.857 177.587 331.576 173.286 328.84C171.147 327.457 169.081 325.945 167.182 324.221C165.281 322.508 163.572 320.528 162.338 318.23C161.139 315.933 160.505 313.228 160.984 310.611C161.164 309.298 161.665 308.063 162.223 306.896C162.791 305.725 163.487 304.651 164.161 303.572C165.531 301.442 166.865 299.32 167.752 297.005C168.638 294.693 169.039 292.222 169.041 289.744C169.028 287.265 168.591 284.802 167.728 282.489C166.844 280.182 165.548 278.041 164.01 276.08C160.937 272.136 157.057 268.841 153.641 265.035C151.922 263.143 150.341 261.09 149.038 258.85C147.753 256.601 146.81 254.14 146.294 251.59C145.78 249.045 145.695 246.402 146.087 243.812C146.502 241.226 147.451 238.74 148.727 236.491C149.985 234.223 151.526 232.165 153.056 230.142C154.594 228.122 156.136 226.132 157.518 224.05C158.907 221.974 160.098 219.784 161.017 217.486C161.93 215.187 162.518 212.768 162.812 210.311C163.379 205.396 162.91 200.31 160.89 195.795C158.949 191.231 155.659 187.374 152.508 183.407C150.933 181.412 149.375 179.37 148.025 177.17C146.681 174.97 145.532 172.624 144.725 170.155C143.124 165.206 142.803 159.906 143.61 154.784C144.048 152.225 144.813 149.737 145.779 147.341C146.77 144.951 148.022 142.691 149.385 140.514C152.156 136.182 155.479 132.279 158.869 128.503C162.254 124.72 165.758 121.064 168.84 117.113C170.372 115.137 171.825 113.099 172.992 110.92C174.159 108.745 175.062 106.44 175.495 104.048C175.943 101.658 175.863 99.2018 175.385 96.8218C174.892 94.4464 173.823 92.2608 172.291 90.3684C171.523 89.4246 170.664 88.5448 169.761 87.7034C168.836 86.8822 167.889 86.0788 166.885 85.3353C164.895 83.8296 162.792 82.4507 160.651 81.1296C156.361 78.4932 151.919 76.0752 147.447 73.717C142.972 71.3616 138.457 69.0744 133.928 66.8122L120.317 60.0674C115.786 57.8053 111.202 55.6524 106.645 53.4429C88.3836 44.6719 70.149 35.8432 51.9507 26.9276L51.9799 26.864Z" fill="white"/>
</g>
<path d="M202.355 404.67L93.1211 396.36V88.9765L202.355 80.8864V404.67Z" fill="url(#paint0_linear_347_2833)"/>
<path d="M101.564 382.925V102.429L202.355 95.6541V389.902L101.564 382.925Z" fill="white"/>
<mask id="mask1_347_2833" style="mask-type:luminance" maskUnits="userSpaceOnUse" x="101" y="95" width="102" height="295">
<path d="M101.564 382.925V102.429L202.355 95.6541V389.902L101.564 382.925Z" fill="white"/>
</mask>
<g mask="url(#mask1_347_2833)">
<path d="M501.399 168.501L393.009 171.684C392.647 112.169 392.35 27.1307 392.937 19.2387C392.907 19.6404 392.705 21.7649 391.664 24.1637L377.304 11.7423C375.765 15.3202 375.718 18.3123 375.593 26.3086C375.522 30.8459 375.473 37.3584 375.446 45.6655C375.402 59.5684 375.418 78.7564 375.497 102.698C375.629 143.43 375.897 184.397 375.9 184.806L375.981 197.183L413.166 196.49V285.647L343.04 284.313L301.142 200.47L243.588 201.495L320.889 61.5793L308.662 46.6418L223.682 201.849L187.114 202.5C187.166 188.424 187.25 163.4 187.301 138.48C187.345 116.469 187.355 98.847 187.329 86.1042C187.278 60.693 187.185 60.4027 186.666 58.7919L179.835 64.8182C179.562 63.9677 179.503 63.2473 179.493 63.1116C179.851 68.3987 179.691 145.574 179.478 202.636L141.291 203.315C134.356 162.291 118.141 66.4356 117.596 63.787L104.877 71.858L104.846 71.7007C105.539 75.4074 119.871 160.634 129.443 217.662L130.822 225.871L210.839 225.305L161.127 316.099L63.5645 312.618V334.265L167.568 339.092L230.51 225.166L293.175 224.723L322.496 283.922L245.027 282.449V450.611L253.142 451.386V295.199L329.01 297.075L405.522 451.553L419.607 437.536L349.672 297.586L422.571 299.389V196.314L501.398 194.845V168.501H501.399Z" fill="#D8DEE8"/>
</g>
<path d="M276.86 387.008H404.258V98.9757H276.86V387.008Z" fill="url(#paint1_linear_347_2833)"/>
<path d="M393.928 373.849L393.928 111.934L276.859 111.934L276.859 373.849H393.928Z" fill="white"/>
<mask id="mask2_347_2833" style="mask-type:luminance" maskUnits="userSpaceOnUse" x="276" y="111" width="118" height="263">
<path d="M393.928 373.849L393.928 111.934L276.859 111.934L276.859 373.849H393.928Z" fill="white"/>
</mask>
<g mask="url(#mask2_347_2833)">
<path d="M440.247 184.593H343.41C343.073 135.905 342.794 66.3257 343.344 59.9149C343.316 60.2411 343.127 61.9632 342.153 63.8468L328.633 52.5291C327.174 55.3522 327.13 57.8137 327.011 64.3923C326.944 68.1255 326.897 73.488 326.872 80.3309C326.83 91.7837 326.846 107.596 326.92 127.328C327.046 160.893 327.3 194.652 327.302 194.989L327.38 205.187H362.09V277.481H295.691L254.049 206.798H194.259L273.867 89.9062L261.637 76.4186L172.844 206.798H132.467C132.525 194.18 132.619 171.751 132.676 149.416C132.726 129.688 132.737 113.892 132.708 102.469C132.651 79.6873 132.546 79.4201 131.963 77.9366L124.264 82.8354C123.956 82.05 123.888 81.3976 123.878 81.2748C124.282 86.0575 124.102 155.47 123.86 206.798H79.8806C71.7209 168.98 52.4299 79.6263 51.776 77.13L36.4235 83.6422L36.3858 83.4932C37.2268 87.0006 54.5018 166.943 65.9081 219.821L67.5415 227.392H158.819L102.924 309.466H-14.7788V330.06H110.313L180.234 227.392H245.955L275.464 277.481H195.793V424.261H204.4V288.435H281.918L355.045 412.562L367.993 400.208L302.144 288.435H370.698V205.187H440.247V184.593Z" fill="#D8DEE8"/>
</g>
<path d="M276.86 387.007L202.355 404.67V80.8864L276.86 98.9756V387.007Z" fill="url(#paint2_linear_347_2833)"/>
<path d="M202.355 389.902V95.6538L276.86 112.112V373.87L202.355 389.902Z" fill="#D8DEE8"/>
<mask id="mask3_347_2833" style="mask-type:luminance" maskUnits="userSpaceOnUse" x="202" y="95" width="75" height="295">
<path d="M202.355 389.902V95.6538L276.86 112.112V373.87L202.355 389.902Z" fill="white"/>
</mask>
<g mask="url(#mask3_347_2833)">
<path d="M351.317 192.168L309.594 187.999C309.437 141.965 309.308 76.1635 309.563 70.1816C309.55 70.4858 309.463 72.0865 309.009 73.7303L302.638 60.9876C301.942 63.4685 301.92 65.8192 301.864 72.1022C301.832 75.6682 301.809 80.7982 301.797 87.3494C301.777 98.3147 301.785 113.463 301.82 132.371C301.88 164.53 302.002 196.872 302.003 197.195L302.04 206.962L318.15 208.02V275.3L286.499 277.032L264.753 206.157L230.574 204.005L275.299 89.6957L268.835 74.3708L217.385 203.175L190.995 201.513C191.034 187.103 191.098 161.489 191.137 135.984C191.171 113.459 191.178 95.4211 191.158 82.3702C191.12 56.3409 191.048 56.0161 190.652 54.2117L185.373 58.3888C185.16 57.4266 185.113 56.6621 185.106 56.5187C185.386 62.1029 185.261 142.027 185.094 201.142L153.286 199.139C147.06 152.778 131.906 40.0051 131.381 36.7615L118.846 41.4877L118.815 41.2912C119.512 45.9024 133.563 148.557 142.559 214.391L143.829 223.687L208.451 225.54L170.308 321.03L73.813 331.45V358.994L175.598 344.513L221.996 225.928L260.34 227.027L276.133 277.599L231.498 280.042V437.82L236.637 436.282V291.442L279.48 288.316L314.954 401.906L320.801 388.829L289.732 287.568L322.007 285.213V208.273L351.317 210.197V192.168Z" fill="#A2A7AE"/>
</g>
<path d="M431.476 94.15C431.476 134.382 375.114 207.796 349.607 238.96C343.259 246.715 331.394 246.715 325.046 238.96C299.539 207.796 243.176 134.382 243.176 94.15C243.176 42.1523 285.329 0 337.326 0C389.324 0 431.476 42.1523 431.476 94.15Z" fill="url(#paint3_linear_347_2833)"/>
<path d="M337.326 146.659C366.326 146.659 389.835 123.15 389.835 94.1499C389.835 65.1501 366.326 41.6411 337.326 41.6411C308.326 41.6411 284.817 65.1501 284.817 94.1499C284.817 123.15 308.326 146.659 337.326 146.659Z" fill="white"/>
<g opacity="0.3">
<path d="M336.91 200.303C342.884 160.966 368.86 148.375 364.401 111.231C359.259 68.3946 321.33 56.9854 320.415 18.8604C320.268 12.7224 321.103 6.80366 322.678 1.13611C277.637 8.17265 243.176 47.1353 243.176 94.15C243.176 134.382 299.538 207.796 325.046 238.96C328.782 243.525 334.429 245.399 339.738 244.59C335.174 227.361 335.036 212.648 336.91 200.303Z" fill="url(#paint4_linear_347_2833)"/>
</g>
<path d="M337.326 304.009C347.954 304.009 356.57 295.393 356.57 284.765C356.57 274.137 347.954 265.521 337.326 265.521C326.698 265.521 318.082 274.137 318.082 284.765C318.082 295.393 326.698 304.009 337.326 304.009Z" fill="url(#paint5_linear_347_2833)"/>
<path d="M174.942 156.119C174.298 155.121 173.122 152.995 173.047 150.142C172.901 144.596 177.014 140.271 177.567 140.519C177.864 140.653 177.486 142.278 177.275 142.998C176.834 144.497 176.36 144.642 176.4 145.331C176.482 146.748 178.528 146.803 179.608 148.684C180.385 150.038 180.447 151.968 179.608 153.495C178.215 156.028 175.075 156.118 174.942 156.119Z" fill="url(#paint6_linear_347_2833)"/>
<path d="M87.0862 276.564L88.667 271.124L82.0672 266.233L77.9531 264.695L80.3889 272.306L87.0862 276.564Z" fill="url(#paint7_linear_347_2833)"/>
<path d="M95.2557 386.124C95.2557 386.124 91.6458 395.205 92.5958 399.233C88.72 399.157 86.2124 398.663 86.2124 398.663C86.2124 398.663 87.7701 394.521 88.0741 392.469C88.4849 389.697 88.4543 385.212 88.4543 385.212L95.2557 386.124Z" fill="url(#paint8_linear_347_2833)"/>
<path d="M135.048 407.364C134.815 407.646 134.4 408.235 134.366 409.032C134.347 409.466 134.446 409.822 134.57 410.15C135.186 411.77 136.153 411.984 137.196 413.702C137.833 414.752 137.713 415.069 138.297 415.543C139.066 416.168 139.998 416.203 140.805 416.213C142.168 416.228 144.132 416.18 146.604 415.885C145.308 414.215 143.931 412.519 142.466 410.806C141.823 410.055 141.181 409.322 140.542 408.606L136.733 407.319C136.171 407.334 135.609 407.349 135.048 407.364Z" fill="#26264F"/>
<path d="M138.216 388.871C138.216 388.871 140.393 400.231 137.622 403.413C135.262 406.594 138.762 404.325 138.762 404.325L142.942 407.972L145.45 412.304C145.45 412.304 143.141 401.185 143.757 396.773C144.372 392.36 144.68 389.384 144.68 389.384L138.216 388.871Z" fill="url(#paint9_linear_347_2833)"/>
<path d="M146.425 264.603C146.425 264.603 152.274 269.837 152.274 291.386C152.274 312.935 149.503 359.728 149.503 359.728L145.07 393.229C145.07 393.229 140.473 393.393 137.394 392.469C134.624 379.848 130.109 358.497 132.264 340.642C133.187 321.247 124.568 296.927 124.568 296.927C124.568 296.927 117.179 321.555 111.946 333.869C106.712 346.183 96.7487 384.759 95.8253 387.53C89.7015 388.085 87.0859 386.466 87.0859 386.466C87.0859 386.466 91.0124 344.951 94.7064 329.251C98.4005 313.551 98.0929 275.686 104.25 264.911C118.103 259.37 146.425 264.603 146.425 264.603Z" fill="url(#paint10_linear_347_2833)"/>
<path d="M146.425 264.603C146.425 264.603 152.274 269.837 152.274 291.386C152.274 312.935 149.503 359.728 149.503 359.728L145.07 393.229C145.07 393.229 140.473 393.393 137.394 392.469C134.624 379.848 130.109 358.497 132.264 340.642C133.187 321.247 124.568 296.927 124.568 296.927C124.568 296.927 117.179 321.555 111.946 333.869C106.712 346.183 96.7485 384.759 95.8251 387.53C89.7016 388.085 87.0859 386.466 87.0859 386.466C87.0859 386.466 91.0124 344.951 94.7064 329.251C98.4008 313.551 98.0929 275.686 104.25 264.911C118.103 259.37 146.425 264.603 146.425 264.603Z" fill="black"/>
<path opacity="0.25" d="M116.04 304.088C114.216 315.943 110.568 322.327 101.449 330.534C94.1535 336.005 99.625 347.861 96.889 356.98C95.9772 359.716 93.2413 362.451 92.3295 365.187C88.9359 371.974 92.1057 380.276 90.567 387.462C88.1725 387.132 87.0859 386.466 87.0859 386.466C87.0859 386.466 91.0124 344.951 94.7064 329.251C98.4008 313.551 98.0929 275.686 104.25 264.911C118.103 259.37 146.425 264.603 146.425 264.603C146.425 264.603 152.274 269.837 152.274 291.386C152.274 293.134 152.256 295.051 152.222 297.094C146.15 302.467 133.73 303.662 126.071 297.704C125.608 297.357 125.116 297.145 124.607 297.041C124.584 296.973 124.568 296.927 124.568 296.927C124.568 296.927 124.555 296.97 124.536 297.034C121.05 296.398 116.831 300.924 116.04 304.088Z" fill="url(#paint11_linear_347_2833)"/>
<path d="M93.5448 402.679C93.5448 402.679 94.4446 402.679 94.3696 403.841C94.2945 405.003 94.7747 409.001 90.2015 409.188C85.6282 409.375 84.9228 408.864 84.7729 408.864C84.6228 408.864 85.9726 405.04 85.9726 405.04L87.4347 403.166L91.3707 402.754L93.5448 402.679Z" fill="#26264F"/>
<path d="M83.4047 406.692C83.5022 405.726 84.0423 404.207 84.5857 402.984C85.3931 401.167 84.7303 400.487 85.5019 398.833C85.7688 398.261 86.0283 397.718 86.5919 397.181C86.7217 397.057 87.9835 395.891 89.8214 395.95C90.183 395.962 90.7399 395.986 91.3416 396.307C92.0506 396.685 92.406 397.253 92.7094 397.751C93.1863 398.534 93.0768 398.774 93.8114 401.019C93.8705 401.198 93.9996 401.59 94.0991 402.131C94.1753 402.544 94.206 402.891 94.2197 403.129C93.02 403.129 88.4092 403.316 87.4348 404.029C86.46 404.741 85.9728 405.94 85.9728 407.14C85.9728 408.339 85.373 408.902 84.773 408.864C84.2371 408.831 83.1726 407.838 83.4047 406.692Z" fill="#444B8C"/>
<path d="M138.8 401.817C137.77 401.833 137.014 402.653 136.444 404.629C135.874 406.605 133.139 408.352 136.33 407.934C139.522 407.517 141.84 412.038 142.98 413.71C144.12 415.382 147.18 416.867 147.104 415.234C147.028 413.6 145.678 412.836 145.298 411.164C144.918 409.492 141.15 401.78 138.8 401.817Z" fill="#444B8C"/>
<path d="M84.6641 267.204C83.9066 265.098 79.1795 251.266 86.8197 238.651C93.0743 228.324 103.897 224.955 105.44 224.499C114.834 221.725 119.542 225.288 122.506 222.009C127.536 216.442 121.838 197.483 110.818 193.685C98.3954 189.404 83.4932 205.865 77.4542 216.676C69.5315 230.861 71.4814 244.958 71.9399 247.862C73.1311 255.407 75.9009 261.162 77.9531 264.695C80.1902 265.531 82.427 266.368 84.6641 267.204Z" fill="url(#paint12_linear_347_2833)"/>
<path d="M117.104 191.009C128.192 190.565 136.744 190.741 141.574 195.568C146.676 200.667 141.52 206.423 142.628 219.76C144.324 240.179 157.336 245.168 158.315 265.883C158.645 272.863 157.464 278.568 156.546 282.004C153.691 285.56 149.017 290.579 142.119 294.775C132.081 300.882 126.261 299.817 111.845 303.763C88.2659 310.216 86.1682 317.901 74.4763 315.943C62.6599 313.964 52.2926 304.02 53.5448 298.559C54.2949 295.289 59.0583 296.215 64.5426 291.227C71.6109 284.799 68.8851 278.663 74.2591 271.755C81.9782 261.832 92.7321 267.898 99.3101 259.298C105.964 250.599 103.325 233.457 97.7159 224.113C94.0524 218.01 92.4834 210.858 89.366 204.459C89.1069 203.927 88.8062 203.055 88.9387 201.966C89.4446 197.798 96.3916 195.537 101.653 193.879C109.678 191.35 116.192 191.045 117.104 191.009Z" fill="url(#paint13_linear_347_2833)"/>
<path d="M126.444 190.55L124.257 189.877C124.257 189.877 123.685 192.838 116.653 193.208C112.75 193.208 110.227 191.021 110.227 191.021L108.733 192.11C108.733 192.11 112.011 196.205 117.225 196.101C123.954 195.967 126.444 190.55 126.444 190.55Z" fill="url(#paint14_linear_347_2833)"/>
<path d="M121.991 181.543C121.569 178.291 118.999 176.208 118.437 175.762C116.089 173.895 115.611 173.707 114.804 173.554L113.703 173.387C113.703 173.387 113.643 173.388 113.582 173.392C112.937 173.431 111.005 174.185 110.653 174.432C109.53 175.222 110.357 180.812 113.76 187.766C113.894 188.355 114.028 188.943 114.162 189.532C111.196 190.054 110.461 190.589 110.438 191.016C110.387 191.941 113.635 193.122 116.645 193.199C120.419 193.295 124.427 191.671 124.35 190.459C124.319 189.969 123.607 189.364 120.866 188.769C120.438 188.167 120.01 187.565 119.582 186.963C119.97 186.492 122.301 183.939 121.991 181.543Z" fill="url(#paint15_linear_347_2833)"/>
<path d="M117.324 180.319C116.468 179.806 115.816 180.908 116.219 181.87C116.623 182.833 117.978 183.435 118.8 182.861C119.622 182.288 118.476 181.008 117.324 180.319Z" fill="url(#paint16_linear_347_2833)"/>
<path d="M6.36015 180.303C17.6293 168.074 43.8497 171.428 58.3933 181.249C65.1511 185.812 68.6196 191.203 76.6048 191.655C82.6752 191.999 92.332 189.717 97.418 183.141C98.0587 182.312 100.621 178.838 104.47 174.456C106.166 172.525 107.853 170.712 110.468 170.302C111.133 170.198 113.343 169.838 114.804 171.265C115.988 172.422 116.279 174.433 115.928 175.882C115.719 176.749 115.448 176.84 115.487 177.408C115.595 179.002 118.499 179.696 118.337 180.499C118.222 181.073 116.71 180.863 116.45 181.583C116.165 182.372 117.825 183.051 118.538 185.036C119.874 185.93 120.718 188.156 121.01 191.134C121.439 195.511 120.999 199.068 120.17 201.747C116.176 214.646 113.319 223.872 106.405 229.024C97.2518 235.845 89.0095 229.547 65.725 228.551C33.8416 227.187 25.8921 237.994 14.4329 230.601C0.124288 221.37 -5.33994 192.999 6.36015 180.303Z" fill="url(#paint17_linear_347_2833)"/>
<path d="M173.595 155.342C173.879 158.01 174.841 169.811 166.701 179.776C159.094 189.087 148.323 190.946 146.32 191.249C136.635 192.712 132.458 188.538 129.074 191.382C123.331 196.209 126.382 215.769 136.78 221.038C148.5 226.977 165.513 212.709 172.973 202.824C182.761 189.857 182.757 175.625 182.7 172.686C182.552 165.049 180.595 158.969 179.045 155.189C178.408 154.997 177.439 154.785 176.251 154.826C175.119 154.865 174.205 155.12 173.595 155.342Z" fill="#076B29"/>
<defs>
<linearGradient id="paint0_linear_347_2833" x1="93.1211" y1="242.778" x2="202.355" y2="242.778" gradientUnits="userSpaceOnUse">
<stop stop-color="#29852C"/>
<stop offset="1" stop-color="#FB6FBB"/>
</linearGradient>
<linearGradient id="paint1_linear_347_2833" x1="311.608" y1="168.422" x2="438.183" y2="494.447" gradientUnits="userSpaceOnUse">
<stop stop-color="#4CAF4F"/>
<stop offset="1" stop-color="#FB6FBB"/>
</linearGradient>
<linearGradient id="paint2_linear_347_2833" x1="171.824" y1="242.593" x2="310.137" y2="243.431" gradientUnits="userSpaceOnUse">
<stop stop-color="#FF9085"/>
<stop offset="1" stop-color="#FB6FBB"/>
</linearGradient>
<linearGradient id="paint3_linear_347_2833" x1="325.18" y1="59.9686" x2="419.997" y2="304.191" gradientUnits="userSpaceOnUse">
<stop stop-color="#4CAF4F"/>
<stop offset="0.0521" stop-color="#4CAF4F"/>
<stop offset="0.1424" stop-color="#4CAF4F"/>
<stop offset="0.3183" stop-color="#4CAF4F"/>
<stop offset="0.4849" stop-color="#4CAF4F"/>
<stop offset="0.7754" stop-color="#4CAF4F"/>
<stop offset="0.8658" stop-color="#4CAF4F"/>
<stop offset="1" stop-color="#4CAF4F"/>
</linearGradient>
<linearGradient id="paint4_linear_347_2833" x1="291.23" y1="73.1491" x2="386.046" y2="317.373" gradientUnits="userSpaceOnUse">
<stop stop-color="#4CAF4F"/>
<stop offset="0.0521" stop-color="#4CAF4F"/>
<stop offset="0.1424" stop-color="#4CAF4F"/>
<stop offset="0.3183" stop-color="#4CAF4F"/>
<stop offset="0.4849" stop-color="#4CAF4F"/>
<stop offset="0.7754" stop-color="#4CAF4F"/>
<stop offset="0.8658" stop-color="#4CAF4F"/>
<stop offset="1" stop-color="#4CAF4F"/>
</linearGradient>
<linearGradient id="paint5_linear_347_2833" x1="362.004" y1="247.308" x2="300.423" y2="340.779" gradientUnits="userSpaceOnUse">
<stop stop-color="#4CAF4F"/>
<stop offset="0.0521" stop-color="#4CAF4F"/>
<stop offset="0.1424" stop-color="#4CAF4F"/>
<stop offset="0.3183" stop-color="#4CAF4F"/>
<stop offset="0.4849" stop-color="#4CAF4F"/>
<stop offset="0.7754" stop-color="#4CAF4F"/>
<stop offset="0.8658" stop-color="#4CAF4F"/>
<stop offset="1" stop-color="#4CAF4F"/>
</linearGradient>
<linearGradient id="paint6_linear_347_2833" x1="174.609" y1="145.643" x2="180.956" y2="155.909" gradientUnits="userSpaceOnUse">
<stop stop-color="#FFC444"/>
<stop offset="0.9964" stop-color="#F36F56"/>
</linearGradient>
<linearGradient id="paint7_linear_347_2833" x1="84.2092" y1="267.155" x2="81.6464" y2="272.425" gradientUnits="userSpaceOnUse">
<stop stop-color="#FFC444"/>
<stop offset="0.9964" stop-color="#F36F56"/>
</linearGradient>
<linearGradient id="paint8_linear_347_2833" x1="90.7341" y1="401.361" x2="90.7341" y2="384.827" gradientUnits="userSpaceOnUse">
<stop stop-color="#FFC444"/>
<stop offset="0.9964" stop-color="#F36F56"/>
</linearGradient>
<linearGradient id="paint9_linear_347_2833" x1="141.127" y1="406.072" x2="141.127" y2="386.147" gradientUnits="userSpaceOnUse">
<stop stop-color="#FFC444"/>
<stop offset="0.9964" stop-color="#F36F56"/>
</linearGradient>
<linearGradient id="paint10_linear_347_2833" x1="152.274" y1="327.803" x2="87.086" y2="327.803" gradientUnits="userSpaceOnUse">
<stop stop-color="#311944"/>
<stop offset="1" stop-color="#893976"/>
</linearGradient>
<linearGradient id="paint11_linear_347_2833" x1="135.857" y1="268.201" x2="88.8928" y2="347.083" gradientUnits="userSpaceOnUse">
<stop stop-color="#311944"/>
<stop offset="1" stop-color="#893976"/>
</linearGradient>
<linearGradient id="paint12_linear_347_2833" x1="99.6733" y1="219.696" x2="134.962" y2="111.58" gradientUnits="userSpaceOnUse">
<stop stop-color="#358A38"/>
<stop offset="0.9964" stop-color="#4CAF4F"/>
</linearGradient>
<linearGradient id="paint13_linear_347_2833" x1="105.907" y1="190.848" x2="105.907" y2="316.254" gradientUnits="userSpaceOnUse">
<stop stop-color="#076B29"/>
</linearGradient>
<linearGradient id="paint14_linear_347_2833" x1="123.783" y1="181.518" x2="114.157" y2="196.819" gradientUnits="userSpaceOnUse">
<stop offset="0.0036" stop-color="#E38DDD"/>
<stop offset="1" stop-color="#9571F6"/>
</linearGradient>
<linearGradient id="paint15_linear_347_2833" x1="112.162" y1="179.17" x2="122.741" y2="196.284" gradientUnits="userSpaceOnUse">
<stop stop-color="#FFC444"/>
<stop offset="0.9964" stop-color="#F36F56"/>
</linearGradient>
<linearGradient id="paint16_linear_347_2833" x1="115.952" y1="176.853" x2="121.99" y2="195.363" gradientUnits="userSpaceOnUse">
<stop stop-color="#FFC444"/>
<stop offset="0.9964" stop-color="#F36F56"/>
</linearGradient>
<linearGradient id="paint17_linear_347_2833" x1="119.051" y1="106.071" x2="30.3858" y2="246.999" gradientUnits="userSpaceOnUse">
<stop stop-color="#444B8C"/>
<stop offset="0.9964" stop-color="#26264F"/>
</linearGradient>
</defs>
</svg>
