<svg width="33" height="46" viewBox="0 0 33 46" fill="none" xmlns="http://www.w3.org/2000/svg">
<path d="M16.3681 17.0757C17.5329 17.0752 18.6608 17.182 19.732 17.3815L25.5439 14.7349V0H6.9668V14.7349L12.8399 17.416C13.9596 17.1952 15.1433 17.0762 16.3681 17.0757Z" fill="#F99E16"/>
<path d="M24.5216 37.8262C29.0358 33.3119 29.0359 25.9928 24.5216 21.4785C20.0073 16.9642 12.6881 16.9642 8.17385 21.4785C3.65956 25.9928 3.65956 33.3119 8.17385 37.8262C12.6881 42.3405 20.0073 42.3405 24.5216 37.8262Z" fill="#FFC728"/>
<path d="M23.0232 36.3274C26.7097 32.6409 26.7097 26.6639 23.0231 22.9774C19.3366 19.2908 13.3596 19.2908 9.67307 22.9773C5.98655 26.6638 5.98657 32.6409 9.6731 36.3274C13.3596 40.0139 19.3367 40.0139 23.0232 36.3274Z" fill="#FFC728"/>
<path d="M16.3701 14.9931C17.1002 14.9929 17.8177 15.0217 18.52 15.0767L23.8019 13.1469V2.90259H8.70801V13.1469L14.0274 15.0938C14.7908 15.028 15.5731 14.9934 16.3701 14.9931Z" fill="#FDB92A"/>
<path d="M12.1116 3H11.5674V14.0797H12.1116V3Z" fill="#F99E16"/>
<path d="M16.6214 3H16.0771V15H16.6214V3Z" fill="#F99E16"/>
<path d="M21.1312 3H20.5869V15H21.1312V3Z" fill="#F99E16"/>
<path d="M20.7979 36.8832C20.6153 36.8832 20.4388 36.8248 20.2875 36.7143L16.3495 33.8368L12.4114 36.7143C12.2602 36.8247 12.0837 36.8832 11.9011 36.8832C11.6232 36.8832 11.3589 36.7474 11.194 36.5199C11.0307 36.2945 10.9875 36.0116 11.0753 35.7436L12.595 31.1091L8.64151 28.2529C8.33072 28.0284 8.20618 27.6476 8.32418 27.2828C8.44218 26.918 8.76611 26.6823 9.14937 26.6823L14.0291 26.6954L15.5237 22.0528C15.6395 21.693 15.9714 21.4512 16.3495 21.4512C16.7275 21.4512 17.0593 21.6929 17.1752 22.0528L18.6698 26.6954L23.547 26.6823C23.9329 26.6823 24.2568 26.918 24.3748 27.2828C24.4927 27.6476 24.3682 28.0283 24.0574 28.2529L20.1039 31.109L21.6235 35.7435C21.7114 36.0114 21.6682 36.2943 21.5049 36.5197C21.3401 36.7473 21.0758 36.8832 20.7979 36.8832ZM9.28243 27.5929L13.1535 30.3895C13.4607 30.6115 13.5878 31.0027 13.4698 31.3629L11.9817 35.9008L15.8377 33.0834C15.9873 32.9741 16.1642 32.9163 16.3495 32.9163C16.5347 32.9163 16.7117 32.9741 16.8612 33.0834L20.7171 35.9008L19.2291 31.363C19.111 31.0028 19.2381 30.6116 19.5454 30.3895L23.4165 27.593L18.641 27.6059C18.2605 27.6059 17.9287 27.3641 17.8129 27.0042L16.3495 22.4585L14.886 27.0042C14.7702 27.3641 14.4384 27.6059 14.0604 27.6059L9.28243 27.5929Z" fill="#FCDF65"/>
</svg>
