<svg width="45" height="49" viewBox="0 0 45 49" fill="none" xmlns="http://www.w3.org/2000/svg">
<path d="M34.8421 0H9.66211V9.6672H34.8421V0Z" fill="#565759"/>
<path d="M10.9965 0H9.66211V9.6672L15.2589 9.66724L10.9965 0Z" fill="#414042"/>
<path d="M29.2373 9.66724L34.8421 9.6672V0H33.4997L29.2373 9.66724Z" fill="#414042"/>
<path d="M22.1618 49.0001C28.0378 49.0001 32.8012 44.2367 32.8012 38.3607C32.8012 32.4847 28.0378 27.7212 22.1618 27.7212C16.2858 27.7212 11.5223 32.4847 11.5223 38.3607C11.5223 44.2367 16.2858 49.0001 22.1618 49.0001Z" fill="#FFC728"/>
<path d="M22.287 47.3672C17.2213 47.4366 13.0858 43.3012 13.1552 38.2355C13.2218 33.3774 17.1774 29.4217 22.0355 29.3551C27.1012 29.2856 31.2366 33.4211 31.1672 38.4868C31.1007 43.3448 27.145 47.3006 22.287 47.3672ZM22.2773 30.0496C17.6022 29.9855 13.7857 33.802 13.8498 38.4771C13.9112 42.9605 17.5618 46.6111 22.0452 46.6726C26.7202 46.7367 30.5367 42.9202 30.4726 38.2452C30.4112 33.7618 26.7607 30.1111 22.2773 30.0496Z" fill="#FCDF65"/>
<path d="M21.8852 27.7248L9.66107 0L0 4.25968L12.8025 33.2961C14.5619 30.0516 17.9592 27.8248 21.8852 27.7248Z" fill="#565759"/>
<path d="M31.6136 33.474L44.4945 4.25968L34.8335 0L22.6064 27.7313C26.5316 27.8931 29.9077 30.1808 31.6136 33.474Z" fill="#565759"/>
<path d="M12.1396 31.7927L12.8025 33.2961C14.5619 30.0516 17.9592 27.8248 21.8852 27.7248L21.3055 26.4097C17.4702 26.6805 14.1337 28.7561 12.1396 31.7927Z" fill="#414042"/>
<path d="M32.2852 31.951C30.3323 28.8729 27.0147 26.7467 23.1834 26.4229L22.6064 27.7313C26.5316 27.8931 29.9077 30.1808 31.6136 33.474L32.2852 31.951Z" fill="#414042"/>
<path d="M22.0596 34.6655L22.272 37.8423L25.211 37.073L22.4032 38.267L24.0073 40.9683L22.0596 38.5295L20.1119 40.9683L21.716 38.267L18.9082 37.073L21.8473 37.8423L22.0596 34.6655Z" fill="white"/>
</svg>
