<svg width="32" height="32" viewBox="0 0 32 32" fill="none" xmlns="http://www.w3.org/2000/svg">
<path d="M24.8205 32C24.4585 32.0001 24.1085 31.8789 23.8086 31.6497L16 25.683L8.19137 31.6497C7.8915 31.8788 7.54164 32 7.17959 32C6.62861 32.0001 6.10439 31.7184 5.77749 31.2466C5.45377 30.7792 5.36793 30.1926 5.54211 29.6369L8.55554 20.0268L0.716283 14.1042C0.100028 13.6387 -0.146924 12.849 0.0870532 12.0926C0.32103 11.3361 0.963333 10.8472 1.7233 10.8472L11.399 10.8745L14.3627 1.24753C14.5923 0.50137 15.2503 0 16 0C16.7495 0 17.4075 0.50128 17.6373 1.24744L20.6009 10.8745L30.2717 10.8472C31.0367 10.8472 31.679 11.3361 31.913 12.0925C32.1469 12.8489 31.8999 13.6385 31.2837 14.1041L23.4444 20.0267L26.4577 29.6367C26.6318 30.1923 26.5462 30.779 26.2225 31.2463C25.8957 31.7182 25.3715 32 24.8205 32ZM7.33947 29.9629L9.6628 18.5346C10.2721 18.995 10.5241 19.8062 10.29 20.5531L7.33947 29.9629L14.9852 24.1207C15.2818 23.8941 15.6327 23.7743 16 23.7743C16.3672 23.7743 16.7182 23.8941 17.0148 24.1207L24.6603 29.9629L14.8383 24.9948C14.604 24.2479 21.7278 18.9952 22.3371 18.5347L30.0128 12.7357L24.2369 19.428C23.4825 19.428 10.5196 20.1742 10.29 19.428L16 2.08876L13.0982 11.5149C12.8684 12.2611 23.0866 20.0268 22.3371 20.0268L7.33947 29.9629Z" fill="#015E20"/>
</svg>
